<?xml version="1.0" encoding="utf-8"?>
<!-- Generator: Adobe Illustrator 16.0.0, SVG Export Plug-In . SVG Version: 6.00 Build 0)  -->
<!DOCTYPE svg PUBLIC "-//W3C//DTD SVG 1.1//EN" "http://www.w3.org/Graphics/SVG/1.1/DTD/svg11.dtd">
<svg version="1.1" id="Layer_1" xmlns="http://www.w3.org/2000/svg" xmlns:xlink="http://www.w3.org/1999/xlink" x="0px" y="0px"
	 width="82.08px" height="87.196px" viewBox="0 0 82.08 87.196" enable-background="new 0 0 82.08 87.196" xml:space="preserve">
<g>
	<path fill="#FFFFFF" d="M62.061,4.423H20.019c-10.026,0-18.154,8.128-18.154,18.154v42.042c0,10.026,8.128,18.154,18.154,18.154
		h42.042c10.025,0,18.154-8.128,18.154-18.154V22.577C80.215,12.551,72.086,4.423,62.061,4.423z M41.04,61.695
		c-9.995,0-18.097-8.103-18.097-18.097c0-9.995,8.102-18.097,18.097-18.097c9.994,0,18.097,8.102,18.097,18.097
		C59.137,53.592,51.034,61.695,41.04,61.695z M64.45,24.526c-1.535,0-2.781-1.245-2.781-2.781c0-1.535,1.246-2.78,2.781-2.78
		s2.779,1.245,2.779,2.78C67.229,23.282,65.985,24.526,64.45,24.526z"/>
</g>
</svg>
