<?xml version="1.0" encoding="utf-8"?>
<!-- Generator: Adobe Illustrator 16.0.0, SVG Export Plug-In . SVG Version: 6.00 Build 0)  -->
<!DOCTYPE svg PUBLIC "-//W3C//DTD SVG 1.1//EN" "http://www.w3.org/Graphics/SVG/1.1/DTD/svg11.dtd">
<svg version="1.1" id="Layer_1" xmlns="http://www.w3.org/2000/svg" xmlns:xlink="http://www.w3.org/1999/xlink" x="0px" y="0px"
	 width="283.464px" height="283.465px" viewBox="0 191.775 283.464 283.465" enable-background="new 0 191.775 283.464 283.465"
	 xml:space="preserve">
<g>
	<path fill="#FFFFFF" d="M270.95,245.379c2.027-6.857-0.291-14.273-5.909-18.737c-3.187-2.548-7.043-3.832-10.956-3.832
		c-3.087,0-6.175,0.807-8.947,2.462c-5.506,3.23-11.266,5.822-17.28,7.651c-11.496-8.792-25.75-13.684-40.401-13.684
		c-33.581,0-61.402,25.049-65.786,57.44c-26.773-5.729-51.165-20.48-68.737-42.033c-3.348-4.129-8.37-6.485-13.616-6.485
		c-0.44,0-0.905,0.03-1.376,0.062c-5.754,0.452-10.894,3.695-13.802,8.667c-5.902,10.113-9.008,21.646-9.008,33.396
		c0,7.937,1.407,15.656,4.011,22.866c-2.802,3.188-4.427,7.317-4.427,11.682c0,17.411,6.572,33.419,17.522,45.449
		c-0.676,3.001-0.571,6.176,0.415,9.214c3.789,11.867,10.72,22.079,19.686,29.873c-5.822,1.32-11.849,1.996-17.962,1.996
		c-3.168,0-6.374-0.205-9.604-0.571c-0.682-0.086-1.364-0.13-2.059-0.13c-7.353,0-14.012,4.601-16.512,11.688
		c-2.771,7.689,0.162,16.289,7.032,20.709c25.241,16.165,54.408,24.714,84.336,24.714c97.066,0,155.399-78.124,156.446-154.382
		c7.899-6.727,14.843-14.471,20.734-23.114c2.226-2.939,3.547-6.591,3.547-10.59C278.298,253.805,275.396,248.585,270.95,245.379z"
		/>
</g>
</svg>
