<?xml version="1.0" encoding="utf-8"?>
<!-- Generator: Adobe Illustrator 16.0.0, SVG Export Plug-In . SVG Version: 6.00 Build 0)  -->
<!DOCTYPE svg PUBLIC "-//W3C//DTD SVG 1.1//EN" "http://www.w3.org/Graphics/SVG/1.1/DTD/svg11.dtd">
<svg version="1.1" id="Layer_1" xmlns="http://www.w3.org/2000/svg" xmlns:xlink="http://www.w3.org/1999/xlink" x="0px" y="0px"
	 width="506.85px" height="521.918px" viewBox="0 0 506.85 521.918" enable-background="new 0 0 506.85 521.918"
	 xml:space="preserve">
<g>
	<g>
		<path fill="#FFFFFF" d="M2579.645,1470.503c-1.425,0-3.621,0.06-6.399,0.133c-4.797,0.128-11.363,0.305-18.657,0.305
			c-39.273,0-52.091-5.274-55.927-9.7c-7.399-8.539,1.236-21.051,6.396-28.525c2.891-4.188,4.209-6.098,3.244-7.935
			c-0.221-0.419-0.899-1.396-2.473-1.396c-0.387,0-0.812,0.061-1.299,0.183c-24.467,6.115-42.667,20.222-51.249,39.713
			c-4.246,9.643-11.282,14.459-17.104,16.553c-0.663-8.091-2.988-36.687-3.313-43.46c-0.562-11.691-2.711-15.469-2.952-15.859
			l-0.702-1.133l-1.325,0.134c-0.135,0.015-3.32,0.348-6.539,1.783c-2.146,0.958-3.822,2.183-5.015,3.634
			c-1.19-1.451-2.866-2.677-5.015-3.634c-3.219-1.438-6.404-1.771-6.539-1.783l-1.325-0.134l-0.702,1.133
			c-0.241,0.394-2.389,4.169-2.952,15.858c-0.054,1.122-0.128,3.123-0.216,5.483l-0.071,1.934
			c-0.099,2.615-0.749,12.721-1.375,22.095c-6.49,1.438-17.714,13.521-19.976,16.016l-0.553,0.608v65.303v4.269v69.396h204.172
			v-69.396v-4.269v-77.306L2579.645,1470.503L2579.645,1470.503z M2403.773,1443.946l0.07-1.935c0.087-2.341,0.16-4.322,0.215-5.437
			c0.336-6.979,1.254-10.793,1.828-12.561c2.771,0.578,8.31,2.313,8.31,6.938v1.8v11.983v6.299c0,1.179,0.955,2.134,2.134,2.134
			c1.18,0,2.135-0.954,2.135-2.134v-6.299v-11.983v-1.8c0-4.595,5.535-6.345,8.307-6.934c0.582,1.786,1.495,5.598,1.83,12.556
			c0.346,7.169,2.812,37.394,3.387,44.365c-1.004,0.169-1.918,0.249-2.7,0.254c-3.332,0-7.121-2.091-10.821-4.645v-7.122
			c0-1.179-0.955-2.134-2.135-2.134s-2.135,0.954-2.135,2.134v4.016c-0.157-0.118-0.316-0.237-0.475-0.354
			c-3.974-2.987-7.771-5.837-11.332-6.91C2403.02,1456.753,2403.676,1446.581,2403.773,1443.946z M2402.094,1470.577
			c2.66,1.09,5.896,3.539,9.062,5.924c1.007,0.757,2.021,1.518,3.039,2.259v48.474c-12.221-19.536-12.976-41.954-13.012-43.531
			C2401.277,1482.503,2401.654,1477.078,2402.094,1470.577z M2454.08,1606.181h-3.221h-4.35h-3.22l-7.117-27.28v27.28h-7.567
			v-14.348c-0.188-0.64-0.48-1.187-0.877-1.638c-0.396-0.452-0.95-0.754-1.666-0.903c0.149-0.264,0.34-0.488,0.565-0.679
			c0.188-0.188,0.44-0.348,0.762-0.479c0.32-0.131,0.726-0.196,1.216-0.196v-24.965h3.389h4.18h3.391l6.947,26.604v-26.604h7.567
			L2454.08,1606.181L2454.08,1606.181z M2488.025,1569.976v0.563v28.298c0,1.018-0.197,1.978-0.593,2.881s-0.934,1.694-1.61,2.373
			c-0.677,0.678-1.469,1.215-2.371,1.608c-0.903,0.396-1.864,0.595-2.882,0.595h-0.112h-10.055h-0.111h-0.51
			c-0.979-0.076-1.894-0.32-2.738-0.734c-0.849-0.413-1.582-0.95-2.203-1.609c-0.621-0.657-1.11-1.432-1.469-2.314
			c-0.358-0.886-0.536-1.815-0.536-2.796v-6.893c-0.227-0.64-0.527-1.187-0.904-1.639c-0.375-0.451-0.923-0.753-1.638-0.902
			c0.149-0.264,0.339-0.488,0.564-0.678c0.188-0.188,0.44-0.349,0.762-0.479c0.32-0.132,0.726-0.197,1.216-0.197v-17.51v-7.456
			h6.946h0.621v19.543v10.845v2.146c0,0.867,0.302,1.603,0.904,2.203c0.603,0.604,1.336,0.902,2.201,0.902h4.52
			c0.68,0,1.252-0.234,1.726-0.706c0.47-0.471,0.705-1.024,0.705-1.666v-13.727v-19.543h7.568L2488.025,1569.976L2488.025,1569.976z
			 M2522.48,1574.777h-7.568v-1.074c0-0.864-0.319-1.608-0.96-2.229c-0.642-0.62-1.395-0.911-2.261-0.875h-3.67
			c-0.867-0.036-1.621,0.255-2.261,0.875c-0.642,0.621-0.96,1.365-0.96,2.229v21.859c0,0.866,0.312,1.602,0.932,2.202
			c0.621,0.604,1.364,0.904,2.23,0.904h4.52c0.679,0,1.252-0.235,1.724-0.707c0.471-0.472,0.706-1.024,0.706-1.666v-1.751h7.568
			v4.235c0,1.018-0.199,1.979-0.599,2.88c-0.397,0.904-0.938,1.695-1.622,2.373c-0.684,0.679-1.479,1.216-2.392,1.609
			c-0.909,0.396-1.878,0.594-2.9,0.594h-0.058h-10.109h-0.057h-0.564c-0.979-0.075-1.884-0.319-2.711-0.733
			c-0.828-0.414-1.562-0.951-2.202-1.608c-0.643-0.659-1.14-1.433-1.497-2.316s-0.537-1.815-0.537-2.796v-6.607
			c-0.188-0.642-0.471-1.194-0.848-1.666s-0.94-0.764-1.693-0.876c0.148-0.264,0.339-0.489,0.563-0.679
			c0.188-0.188,0.441-0.349,0.763-0.479c0.319-0.132,0.726-0.197,1.215-0.197v-17.792c0-0.979,0.179-1.911,0.537-2.796
			c0.356-0.885,0.854-1.657,1.497-2.314c0.641-0.659,1.374-1.195,2.202-1.61c0.827-0.413,1.73-0.657,2.711-0.733h10.73h0.059
			c1.021,0,1.99,0.197,2.9,0.593c0.911,0.396,1.707,0.933,2.391,1.61c0.685,0.677,1.225,1.468,1.623,2.371
			c0.396,0.904,0.598,1.863,0.598,2.882V1574.777L2522.48,1574.777z M2549.027,1606.294l-1.582-9.207h-9.603l-1.64,9.207h-7.625
			l2.543-14.518l-0.059,0.057c-0.226-0.64-0.525-1.194-0.902-1.666c-0.377-0.471-0.941-0.78-1.693-0.933
			c0.148-0.264,0.339-0.488,0.562-0.679c0.188-0.188,0.452-0.349,0.791-0.479c0.34-0.131,0.754-0.196,1.242-0.196
			c0.113,0,0.233,0.01,0.367,0.027c0.132,0.021,0.232,0.027,0.311,0.027l4.406-25.306h2.033h3.273h2.316h3.389h1.921l7.625,43.662
			h-7.68v0.003H2549.027z M2577.51,1547.809h-195.637v-63.65c4.77-5.174,12.002-11.928,15.951-13.71
			c-0.447,6.622-0.829,12.091-0.904,13.016l-0.008,0.097l0.001,0.099c0.011,1.188,0.475,29.363,17.714,51.674
			c0.42,0.545,1.053,0.829,1.689,0.829c0.455,0,0.914-0.146,1.304-0.444c0.423-0.326,0.679-0.778,0.776-1.265
			c0.01-0.038,0.02-0.075,0.024-0.113c0.007-0.037,0.009-0.073,0.013-0.109c0.012-0.092,0.026-0.182,0.026-0.274v-52.288
			c3.559,2.207,7.188,3.801,10.896,3.801c12.963-0.077,23.514-10.662,27.829-20.463c7.718-17.527,23.856-30.435,45.622-36.562
			c-0.412,0.612-0.854,1.256-1.265,1.849c-5.479,7.938-15.677,22.709-6.108,33.746c6.517,7.52,25.862,11.174,59.149,11.174
			c7.351,0,13.952-0.177,18.771-0.306c1.595-0.043,2.991-0.08,4.152-0.104v73.008h0.004V1547.809z"/>
		<polygon fill="#FFFFFF" points="2542.475,1570.257 2539.143,1589.52 2546.146,1589.52 2542.814,1570.257 		"/>
		<text transform="matrix(1 0 0 1 2423.3154 1537.0527)" fill="#FFFFFF" font-family="'MelmaBlack'" font-size="56.483">Meia</text>
	</g>
</g>
<g>
	<path fill="#0A7575" d="M253.426,31.656C126.784,31.656,24.12,134.319,24.12,260.96c0,126.64,102.664,229.303,229.306,229.303
		S482.729,387.6,482.729,260.96C482.729,134.319,380.067,31.656,253.426,31.656z M253.426,414.436
		c-84.764,0-153.479-68.715-153.479-153.477c0-84.763,68.716-153.479,153.479-153.479c84.762,0,153.478,68.717,153.478,153.479
		S338.188,414.436,253.426,414.436z"/>
</g>
<g>
	<path fill="#FFFFFF" d="M74.849,327.946c-3.333,1.325-5.271,5.202-3.807,8.524c0.65,1.637,1.957,2.774,3.558,3.465
		c0.343,0.146,0.526,0.549,0.377,0.894c-0.146,0.342-0.557,0.505-0.898,0.356c-1.997-0.793-3.531-2.268-4.319-4.25
		c-1.612-4.047,0.497-8.629,4.586-10.259c4.089-1.627,8.854,0.409,10.408,4.312c0.569,1.434,0.607,3.312-0.036,4.255l0.891-0.379
		c0.409-0.161,0.695,0.08,0.817,0.388c0.122,0.306,0.088,0.696-0.321,0.86l-2.983,1.188c-0.327,0.131-0.74,0.105-0.902-0.303
		c-0.123-0.309-0.003-0.663,0.323-0.792l0.164-0.065c1.036-0.436,1.806-2.067,0.78-4.645
		C82.184,328.225,78.242,326.595,74.849,327.946z"/>
	<path fill="#FFFFFF" d="M83.026,345.38l4.144,8.009l5.312-2.748l-0.181-0.352c-0.404-0.782,0.827-1.418,1.231-0.639l1,1.936
		c0.413,0.8-0.816,1.438-1.231,0.637l-0.181-0.353l-11.858,6.133l0.181,0.353c0.414,0.804-0.815,1.438-1.229,0.638l-1-1.935
		c-0.404-0.781,0.827-1.418,1.23-0.638l0.183,0.353l5.312-2.748l-4.143-8.01l-5.313,2.75l0.183,0.35
		c0.414,0.803-0.816,1.438-1.23,0.64l-1.001-1.938c-0.404-0.777,0.827-1.418,1.231-0.635l0.182,0.353l11.858-6.134l-0.183-0.353
		c-0.403-0.78,0.827-1.418,1.231-0.637l1,1.935c0.415,0.803-0.816,1.438-1.23,0.637l-0.181-0.351L83.026,345.38z"/>
	<path fill="#FFFFFF" d="M93.6,370.191l7.799-5.047l-0.096-0.146c-0.49-0.76,0.674-1.513,1.164-0.753l0.946,1.459
		c0.478,0.736-0.688,1.491-1.165,0.753l-0.097-0.147l-7.779,5.035c-2.569,1.66-6.014,0.797-7.615-1.681
		c-1.603-2.478-0.98-5.974,1.588-7.636l7.781-5.033l-0.097-0.146c-0.478-0.738,0.688-1.492,1.165-0.754l0.944,1.459
		c0.491,0.76-0.673,1.514-1.165,0.754l-0.095-0.146l-7.798,5.047c-1.922,1.244-2.386,3.852-1.179,5.717
		C89.11,370.789,91.678,371.436,93.6,370.191z"/>
	<path fill="#FFFFFF" d="M96.284,380.878c0.557,0.71-0.534,1.563-1.092,0.854l-1.343-1.715c-0.543-0.69,0.547-1.548,1.091-0.854
		l0.245,0.312l10.508-8.238l-0.176-0.226c-0.557-0.71,0.534-1.562,1.09-0.854l3.447,4.396c1.602,2.042,1.141,4.947-0.789,6.515
		c-1.6,1.312-3.844,1.338-5.562,0.144c-0.06-0.039-0.086-0.071-0.145-0.11l-2.308,6.114l0.421,0.536
		c0.557,0.71-0.534,1.564-1.09,0.854l-0.681-0.864c-0.081-0.104-0.333-0.354-0.103-0.953l2.715-6.771l-2.199-2.807l-4.276,3.354
		L96.284,380.878z M101.407,376.359l2.417,3.08c1.126,1.438,3.19,1.721,4.601,0.561c1.358-1.121,1.667-3.15,0.54-4.59l-2.416-3.081
		L101.407,376.359z"/>
	<path fill="#FFFFFF" d="M107.468,394.314c0.618,0.656-0.392,1.605-1.01,0.949l-1.493-1.588c-0.604-0.641,0.407-1.592,1.01-0.949
		l0.272,0.289l9.731-9.151l-0.194-0.208c-0.618-0.656,0.392-1.605,1.01-0.949l3.83,4.07c1.777,1.895,1.579,4.83-0.203,6.564
		c-1.479,1.449-3.711,1.676-5.531,0.641c-0.061-0.034-0.092-0.063-0.152-0.099l-1.751,6.299l0.468,0.497
		c0.617,0.657-0.394,1.605-1.012,0.949l-0.753-0.803c-0.091-0.096-0.363-0.322-0.188-0.938l2.1-6.989l-2.441-2.598l-3.96,3.725
		L107.468,394.314z M112.167,389.352l2.684,2.854c1.251,1.33,3.334,1.427,4.635,0.142c1.253-1.238,1.378-3.287,0.127-4.617
		l-2.683-2.854L112.167,389.352z"/>
	<path fill="#FFFFFF" d="M121.681,404.296l-2.901,1.486l0.082,0.071c0.66,0.582-0.259,1.622-0.918,1.039l-1.401-1.239
		c-0.659-0.583,0.26-1.621,0.919-1.037l0.214,0.188l12.74-6.562c-0.442-0.598,0.406-1.491,1.032-0.938l1.303,1.151
		c0.626,0.555-0.141,1.521-0.804,1.141l-4.942,13.46l0.198,0.177c0.658,0.583-0.261,1.621-0.919,1.037l-1.385-1.224
		c-0.676-0.601,0.243-1.639,0.918-1.04l0.066,0.061l1.122-3.062L121.681,404.296z M123.013,403.622l4.516,3.994l2.874-7.8
		L123.013,403.622z"/>
	<path fill="#FFFFFF" d="M138.722,408.632c-1.275,1.71,0.25,3.421,1.341,4.865c1.547,1.863,2.563,4.073,0.906,6.299
		c-1.563,2.103-4.709,2.089-6.686,0.617c-1.343-0.998-1.806-2.44-1.954-3.678l-0.679,0.949c-0.263,0.353-0.65,0.284-0.916,0.087
		c-0.264-0.196-0.423-0.534-0.161-0.89l2.265-3.114c0,0,0.425-0.533,0.919-0.166c0.317,0.235,0.429,0.564,0.183,0.933l-0.052,0.071
		c-1.204,1.652-0.551,3.43,1.033,4.582c1.43,1.062,3.741,1.387,4.938-0.22c1.195-1.605,0.314-3.334-0.81-4.664
		c-2.129-2.518-2.797-4.604-1.404-6.478c1.458-1.96,4.276-1.837,6.059-0.509c1.059,0.786,1.823,2.044,1.803,3.29l0.547-0.772
		c0.263-0.354,0.632-0.298,0.897-0.102c0.265,0.198,0.441,0.549,0.179,0.901l-1.918,2.576c-0.211,0.282-0.575,0.479-0.928,0.215
		c-0.266-0.195-0.351-0.562-0.14-0.845c1.117-1.5,0.307-3.175-1.176-4.276C141.714,407.374,139.76,407.237,138.722,408.632z"/>
	<path fill="#FFFFFF" d="M176.672,431.259c-0.826,1.97,1.064,3.263,2.473,4.4c1.949,1.438,3.466,3.338,2.396,5.895
		c-1.014,2.415-4.068,3.159-6.34,2.208c-1.542-0.646-2.339-1.935-2.781-3.099l-0.431,1.084c-0.17,0.405-0.562,0.433-0.867,0.304
		c-0.305-0.127-0.54-0.417-0.371-0.822l1.447-3.564c0,0,0.285-0.62,0.854-0.384c0.365,0.152,0.552,0.445,0.402,0.86l-0.034,0.08
		c-0.771,1.896,0.291,3.462,2.104,4.198c1.644,0.688,3.964,0.443,4.737-1.401c0.774-1.846-0.496-3.309-1.906-4.33
		c-2.672-1.932-3.822-3.796-2.921-5.945c0.944-2.253,3.707-2.812,5.756-1.951c1.218,0.51,2.263,1.545,2.541,2.759l0.347-0.88
		c0.17-0.407,0.542-0.441,0.846-0.312c0.305,0.127,0.561,0.426,0.391,0.83l-1.241,2.964c-0.136,0.322-0.442,0.601-0.849,0.43
		c-0.304-0.127-0.475-0.46-0.339-0.785c0.724-1.724-0.466-3.153-2.171-3.867C179.274,429.322,177.345,429.657,176.672,431.259z"/>
	<path fill="#FFFFFF" d="M185.993,446.521l4.099-12.691l-0.168-0.053c-0.838-0.271-0.405-1.612,0.433-1.342l1.675,0.54
		c0.839,0.271,0.405,1.609-0.433,1.342l-0.167-0.057l-2.368,7.33l8.635-5.397c-0.442-0.42-0.033-1.396,0.72-1.153l1.653,0.533
		c0.86,0.275,0.428,1.616-0.433,1.341l-0.376-0.123l-5.604,3.466l-0.229,0.133l3.076,9.526l0.355,0.114
		c0.858,0.277,0.434,1.597-0.427,1.319l-1.654-0.533c-0.754-0.244-0.499-1.318,0.183-1.354l-2.729-8.305l-0.519,0.316l-3.258,2.001
		l-1.124,3.476l0.168,0.056c0.838,0.271,0.412,1.59-0.426,1.319l-1.677-0.542c-0.838-0.271-0.412-1.591,0.427-1.317L185.993,446.521
		z"/>
	<path fill="#FFFFFF" d="M205.635,449.138l-1.816,2.707l0.107,0.023c0.859,0.189,0.561,1.543-0.299,1.354l-1.826-0.404
		c-0.86-0.189-0.562-1.543,0.298-1.354l0.279,0.062l7.953-11.923c-0.676-0.307-0.366-1.5,0.449-1.318l1.697,0.374
		c0.816,0.182,0.615,1.396-0.148,1.389l2.21,14.166l0.258,0.059c0.858,0.189,0.561,1.543-0.299,1.354l-1.806-0.399
		c-0.881-0.193-0.582-1.549,0.3-1.354l0.086,0.02l-0.504-3.221L205.635,449.138z M206.471,447.902l5.887,1.302l-1.271-8.214
		L206.471,447.902z"/>
	<path fill="#FFFFFF" d="M223.146,456.934c-0.872-0.118-0.688-1.491,0.186-1.375l0.392,0.054l1.776-13.234l-4.383-0.59l-0.041,0.308
		c-0.117,0.872-1.491,0.688-1.374-0.187l0.132-0.979c0.052-0.394,0.354-0.663,0.77-0.606l11.558,1.551
		c0.436,0.061,0.606,0.437,0.561,0.785l-0.132,0.979c-0.117,0.874-1.491,0.688-1.374-0.185l0.041-0.306l-4.383-0.588l-1.775,13.235
		l0.393,0.053c0.894,0.119,0.71,1.494-0.186,1.373L223.146,456.934z"/>
	<path fill="#FFFFFF" d="M238.208,449.702l6.484,0.308c0.878,0.043,0.812,1.448-0.066,1.407l-6.484-0.308l-0.282,5.957l7.627,0.359
		l0.016-0.308c0.041-0.88,1.426-0.813,1.384,0.064l-0.046,0.988c-0.019,0.353-0.254,0.692-0.694,0.673l-10.021-0.476
		c-0.901-0.043-0.836-1.427,0.064-1.386l0.286,0.015l0.63-13.342l-0.285-0.015c-0.9-0.043-0.836-1.429,0.065-1.386l10.023,0.476
		c0.461,0.021,0.663,0.404,0.625,0.755l-0.047,0.968c-0.041,0.881-1.426,0.813-1.384-0.064l0.015-0.308l-7.628-0.359
		L238.208,449.702z"/>
	<path fill="#FFFFFF" d="M290.8,442.286c0.51,2.073,2.801,1.987,4.608,2.064c2.423-0.007,4.772,0.617,5.435,3.312
		c0.624,2.543-1.387,4.963-3.781,5.55c-1.625,0.398-3.029-0.161-4.08-0.834l0.303,1.127c0.104,0.428-0.196,0.685-0.52,0.762
		c-0.318,0.079-0.682-0.013-0.787-0.439l-0.961-3.729c0,0-0.141-0.669,0.457-0.813c0.387-0.094,0.711,0.029,0.836,0.452l0.021,0.084
		c0.51,1.982,2.296,2.61,4.191,2.122c1.731-0.424,3.451-2.001,2.975-3.947c-0.479-1.942-2.369-2.362-4.107-2.345
		c-3.302,0.039-5.336-0.775-5.893-3.043c-0.581-2.371,1.306-4.468,3.465-4.997c1.283-0.312,2.739-0.104,3.686,0.706l-0.246-0.914
		c-0.104-0.429,0.176-0.679,0.494-0.757c0.32-0.076,0.705,0.01,0.812,0.438l0.767,3.119c0.082,0.343,0.002,0.747-0.427,0.853
		c-0.321,0.08-0.657-0.088-0.741-0.431c-0.443-1.816-2.252-2.257-4.047-1.816C291.737,439.178,290.388,440.599,290.8,442.286z"/>
	<path fill="#FFFFFF" d="M314.76,442.217l-2.963-8.8l-0.166,0.059c-0.854,0.286-1.299-1.024-0.441-1.313l1.646-0.554
		c0.833-0.281,1.274,1.032,0.441,1.312l-0.168,0.055l2.955,8.776c0.977,2.896-0.714,6.021-3.507,6.96
		c-2.793,0.94-6.025-0.524-7-3.422l-2.955-8.776l-0.168,0.057c-0.832,0.279-1.272-1.031-0.439-1.312l1.646-0.554
		c0.854-0.288,1.297,1.024,0.44,1.312l-0.168,0.059l2.964,8.797c0.729,2.167,3.139,3.261,5.243,2.553
		C314.229,446.71,315.488,444.384,314.76,442.217z"/>
	<path fill="#FFFFFF" d="M325.793,442.24c0.823-0.363,1.386,0.903,0.559,1.27l-1.99,0.88c-0.807,0.355-1.366-0.911-0.562-1.27
		l0.361-0.158l-5.396-12.218l-0.263,0.115c-0.824,0.363-1.384-0.902-0.56-1.268l5.11-2.261c2.376-1.047,5.079,0.115,6.123,2.372
		c0.876,1.874,0.349,4.057-1.233,5.43c-0.054,0.047-0.093,0.062-0.144,0.109l5.355,3.742l0.624-0.272
		c0.824-0.364,1.384,0.901,0.56,1.27l-1.007,0.442c-0.12,0.055-0.424,0.234-0.947-0.136l-5.894-4.301l-3.261,1.439l2.195,4.971
		L325.793,442.24z M322.675,436.16l3.583-1.582c1.669-0.735,2.451-2.67,1.674-4.323c-0.751-1.593-2.646-2.393-4.312-1.653
		l-3.583,1.582L322.675,436.16z"/>
	<path fill="#FFFFFF" d="M337.551,428.48l5.494-3.015c0.771-0.424,1.447,0.812,0.678,1.233l-5.494,3.015l2.88,5.244l0.152-0.084
		c0.79-0.435,1.457,0.779,0.667,1.214l-1.521,0.837c-0.792,0.436-1.459-0.781-0.667-1.215l0.152-0.084l-6.434-11.722l-0.253,0.138
		c-0.788,0.434-1.455-0.781-0.667-1.217l8.6-4.72c0.405-0.223,0.776-0.002,0.93,0.317l0.465,0.851
		c0.424,0.771-0.79,1.438-1.213,0.666l-0.148-0.271l-6.497,3.567L337.551,428.48z"/>
	<path fill="#FFFFFF" d="M388.296,401.652c-0.618,0.627-1.604-0.349-0.984-0.975l0.278-0.281l-9.501-9.385l-3.107,3.146l0.222,0.218
		c0.624,0.618-0.348,1.604-0.976,0.983l-0.706-0.694c-0.279-0.278-0.313-0.683-0.021-0.979l8.193-8.295
		c0.311-0.312,0.715-0.224,0.964,0.024l0.704,0.694c0.626,0.617-0.349,1.604-0.975,0.985l-0.22-0.217l-3.105,3.146l9.498,9.383
		l0.278-0.28c0.635-0.644,1.62,0.331,0.985,0.975L388.296,401.652z"/>
	<path fill="#FFFFFF" d="M397.576,389.587c0.573-0.694,1.643,0.188,1.065,0.884l-1.387,1.68c-0.562,0.678-1.629-0.207-1.067-0.885
		l0.254-0.306l-10.287-8.511l-0.183,0.222c-0.574,0.692-1.645-0.19-1.067-0.884l3.562-4.307c1.654-2,4.592-2.168,6.532-0.616
		c1.623,1.282,2.125,3.472,1.324,5.403c-0.023,0.065-0.053,0.101-0.078,0.164l6.463,0.951l0.438-0.525
		c0.574-0.692,1.641,0.188,1.065,0.886l-0.7,0.847c-0.084,0.104-0.273,0.4-0.907,0.305l-7.19-1.211l-2.271,2.746l4.186,3.463
		L397.576,389.587z M392.071,385.546l2.496-3.019c1.161-1.403,0.999-3.482-0.437-4.612c-1.387-1.086-3.435-0.955-4.599,0.449
		l-2.497,3.018L392.071,385.546z"/>
	<path fill="#FFFFFF" d="M405.709,374.247l1.838,2.692l0.062-0.09c0.497-0.728,1.642,0.055,1.145,0.78l-1.055,1.543
		c-0.497,0.728-1.642-0.056-1.145-0.782l0.161-0.234l-8.098-11.815c-0.536,0.515-1.527-0.217-1.056-0.909l0.979-1.435
		c0.471-0.688,1.523-0.05,1.229,0.653l13.964,3.229l0.148-0.219c0.495-0.729,1.64,0.056,1.145,0.781l-1.042,1.525
		c-0.51,0.742-1.652-0.039-1.145-0.781l0.049-0.074l-3.176-0.729L405.709,374.247z M404.877,373.014l3.397-4.978l-8.094-1.88
		L404.877,373.014z"/>
	<path fill="#FFFFFF" d="M423.261,352.877c0.386,0.213,0.366,0.604,0.206,0.895c-0.159,0.289-0.452,0.455-0.837,0.239l-0.646-0.331
		c0.262,1.478-0.116,2.928-0.706,4.035c-2.022,3.781-6.938,5.332-10.975,3.09c-4.04-2.242-5.288-7.062-3.121-10.966
		c0.749-1.347,2.104-2.479,3.243-2.579l-0.856-0.449c-0.385-0.213-0.378-0.588-0.218-0.875c0.16-0.289,0.485-0.513,0.87-0.297
		l2.809,1.56c0.308,0.17,0.548,0.506,0.335,0.891c-0.161,0.288-0.513,0.422-0.817,0.25l-0.153-0.086
		c-0.991-0.524-2.711-0.146-4.058,2.276c-1.72,3.097-0.704,7.156,2.582,9.031c3.285,1.877,7.336,0.701,9.084-2.354
		c0.616-1.115,1.043-2.742,0.895-4.059l-3.213-1.784l-2.07,3.731c-0.172,0.307-0.608,0.415-0.897,0.256
		c-0.316-0.149-0.538-0.524-0.312-0.93l2.412-4.346c0.183-0.327,0.562-0.471,0.927-0.268L423.261,352.877z"/>
	<path fill="#FFFFFF" d="M425.438,329.747c4.21,1.797,6.058,6.771,4.341,10.799c-1.734,4.066-6.641,6.089-10.688,4.364
		c-4.291-1.831-6.122-6.848-4.413-10.854C416.471,329.848,421.49,328.064,425.438,329.747z M428.49,339.973
		c1.416-3.32-0.075-7.449-3.576-8.94c-3.34-1.425-7.517,0.118-9,3.601c-1.415,3.319,0.18,7.491,3.698,8.993
		C422.972,345.059,427.058,343.332,428.49,339.973z"/>
</g>
<g>
	<path fill="#FFFFFF" d="M139.58,120.103c-1.432,0.803-2.697-1.45-1.267-2.255l0.645-0.362l-12.175-21.681l-0.646,0.362
		c-1.431,0.803-2.717-1.486-1.286-2.29l1.253-0.703c0.607-0.343,1.354-0.104,1.354-0.104c11.249,5.449,16.227,8.113,18.296,9.116
		l1.002-19.67c0,0,0.207-1.057,1.029-1.519l1.145-0.645c1.467-0.824,2.753,1.466,1.286,2.29l-0.645,0.363l12.176,21.681l0.645-0.36
		c1.466-0.824,2.733,1.43,1.267,2.253l-3.542,1.989c-1.467,0.824-2.732-1.431-1.267-2.255l0.646-0.36l-10.469-18.642l-1.123,16.773
		c-0.037,0.351-0.243,0.655-0.565,0.835c-0.286,0.161-0.704,0.254-1.043,0.068l-15.551-7.409l10.469,18.641l0.68-0.381
		c1.432-0.804,2.697,1.45,1.267,2.253L139.58,120.103z"/>
	<path fill="#FFFFFF" d="M171.463,85.878l11.405-4.052c1.546-0.55,2.425,1.925,0.878,2.475l-11.404,4.052l3.721,10.478l13.416-4.766
		l-0.191-0.542c-0.551-1.545,1.886-2.411,2.435-0.864l0.618,1.739c0.22,0.619,0.053,1.375-0.721,1.649l-17.629,6.262
		c-1.586,0.563-2.45-1.873-0.864-2.436l0.502-0.179l-8.335-23.467l-0.502,0.179c-1.585,0.562-2.45-1.873-0.865-2.438l17.63-6.262
		c0.812-0.289,1.432,0.231,1.612,0.863l0.604,1.702c0.549,1.547-1.886,2.412-2.435,0.865l-0.193-0.542L167.73,75.36L171.463,85.878z
		"/>
	<path fill="#FFFFFF" d="M204.359,90.207l0.32-0.077c1.637-0.387,2.231,2.13,0.595,2.517c-1.039,0.245-2.117,0.5-3.154,0.745
		c-1.639,0.388-2.232-2.129-0.597-2.516l0.32-0.075l-5.731-24.241l-0.319,0.075c-1.638,0.387-2.231-2.129-0.596-2.516l3.155-0.747
		c1.638-0.388,2.232,2.13,0.595,2.517l-0.318,0.076L204.359,90.207z"/>
	<path fill="#FFFFFF" d="M218.666,81.63l-1.533,5.884l0.205-0.024c1.629-0.192,1.935,2.375,0.305,2.568l-3.463,0.411
		c-1.631,0.193-1.935-2.374-0.306-2.567l0.529-0.062l6.682-25.875c-1.379-0.126-1.568-2.418-0.021-2.603l3.22-0.382
		c1.549-0.184,1.94,2.083,0.591,2.533l12.593,23.588l0.489-0.058c1.629-0.194,1.935,2.374,0.304,2.565l-3.422,0.407
		c-1.671,0.198-1.977-2.369-0.306-2.566l0.163-0.02l-2.867-5.362L218.666,81.63z M219.38,78.942l11.165-1.324l-7.285-13.682
		L219.38,78.942z"/>
	<path fill="#FFFFFF" d="M264.969,85.394l0.327,0.035c1.632,0.179,1.352,2.749-0.281,2.569l-3.262-0.358
		c-1.633-0.178-1.352-2.748,0.278-2.569l0.327,0.036l2.717-24.754l-0.53-0.058c-1.633-0.179-1.353-2.748,0.282-2.569l1.834,0.201
		c0.488,0.053,0.829,0.338,1.068,0.777l11.367,21.676l2.312,5.248l0.206-4.89l2.012-18.351l-0.326-0.036
		c-1.631-0.179-1.349-2.748,0.281-2.57l3.224,0.354c1.67,0.184,1.392,2.752-0.281,2.569l-0.327-0.036l-2.865,26.141
		c-0.116,1.061-0.985,1.088-1.681,1.012c-0.488-0.054-0.957-0.312-1.149-0.786l-13.147-25.38L264.969,85.394z"/>
	<path fill="#FFFFFF" d="M313.99,87.033l4.593-16.692l-0.317-0.087c-1.619-0.446-0.937-2.939,0.688-2.493l3.125,0.86
		c1.582,0.436,0.896,2.928-0.688,2.491l-0.314-0.087l-4.582,16.652c-1.512,5.499-7.376,8.565-12.677,7.107s-8.771-7.094-7.26-12.592
		l4.582-16.652l-0.316-0.087c-1.581-0.437-0.896-2.928,0.687-2.492l3.125,0.859c1.622,0.446,0.937,2.938-0.687,2.492l-0.314-0.087
		l-4.593,16.692c-1.133,4.112,1.457,8.313,5.45,9.414C308.484,93.433,312.858,91.147,313.99,87.033z"/>
	<path fill="#FFFFFF" d="M329.904,87.415c-2.75,6.097-0.328,13.804,5.942,16.361c2.993,1.349,6.219,1.184,9.257,0.033
		c0.65-0.247,1.416,0.053,1.662,0.704c0.246,0.651-0.092,1.399-0.741,1.646c-3.702,1.525-7.67,1.536-11.298-0.1
		c-7.404-3.338-10.516-12.211-7.144-19.69c3.371-7.48,12.396-10.929,19.54-7.707c2.618,1.181,5.104,3.651,5.465,5.749l0.704-1.663
		c0.339-0.749,1.033-0.795,1.596-0.542c0.561,0.253,1.023,0.82,0.688,1.569l-2.462,5.46c-0.271,0.6-0.855,1.101-1.604,0.764
		c-0.561-0.253-0.859-0.885-0.592-1.482l0.137-0.299c0.821-1.925-0.262-5.113-4.976-7.237
		C340.097,78.284,332.702,81.206,329.904,87.415z"/>
	<path fill="#FFFFFF" d="M359.771,109.99l-4.957,3.521l0.172,0.112c1.372,0.899-0.045,3.062-1.418,2.163l-2.918-1.913
		c-1.372-0.899,0.045-3.062,1.419-2.161l0.444,0.292l21.753-15.524c-0.977-0.981,0.354-2.859,1.658-2.004l2.712,1.777
		c1.305,0.854,0.146,2.844-1.177,2.318l-5.521,26.163l0.412,0.271c1.372,0.899-0.044,3.062-1.418,2.163l-2.884-1.891
		c-1.405-0.922,0.011-3.084,1.419-2.161l0.139,0.09l1.249-5.952L359.771,109.99z M362.047,108.39l9.402,6.164l3.217-15.163
		L362.047,108.39z"/>
</g>
<g>
	<path fill="#FFFFFF" d="M359.806,414.598c0-1.185-0.959-2.142-2.142-2.142c-1.182,0-2.143,0.957-2.143,2.142
		c0,1.187,0.961,2.146,2.143,2.146C358.847,416.742,359.806,415.783,359.806,414.598z"/>
</g>
<g>
	<circle fill="#FFFFFF" cx="269.577" cy="448.667" r="2.143"/>
</g>
<g>
	<circle fill="#FFFFFF" cx="156.906" cy="426.943" r="2.145"/>
</g>
<g>
	<g>
		<g>
			<g>
				<path fill="#0A7575" d="M161.381,302.747l-0.467-0.007l-4.009-3.016l-4.005,3.016l-0.467,0.007
					c-1.882,0-3.542-1.197-4.134-2.981c-0.673-2.007-1.39-4.373-2.131-7.043l-0.57,0.006l-1.834-9.438
					c-2.887-12.483-4.618-24.287-4.738-32.344c0-25.581,14.466-41.23,17.421-42.475l0.458-0.192l0.459,0.192
					c2.955,1.243,17.421,16.894,17.421,42.457c-0.12,8.06-1.853,19.865-4.748,32.402l-1.824,9.396l-0.569-0.006
					c-0.743,2.67-1.46,5.036-2.134,7.047C164.92,301.549,163.26,302.747,161.381,302.747z M147.887,290.059l0.303,1.107
					c0.822,3.01,1.615,5.648,2.354,7.85c0.237,0.724,0.856,1.234,1.589,1.346l4.774-3.596l4.776,3.596
					c0.731-0.109,1.349-0.622,1.587-1.342c0.738-2.203,1.53-4.844,2.354-7.854l0.304-1.107l0.38,0.094l1.42-7.312
					c2.869-12.424,4.578-24.045,4.695-31.929c0-23.832-12.565-37.631-15.519-39.951c-2.936,2.308-15.515,16.107-15.515,39.969
					c0.118,7.878,1.828,19.502,4.688,31.871l1.429,7.354L147.887,290.059z"/>
			</g>
		</g>
		<g>
			<g>
				<path fill="#0A7575" d="M156.906,299.426c-0.65,0-1.181-0.529-1.181-1.182V209.56c0-0.651,0.529-1.182,1.181-1.182
					c0.652,0,1.182,0.528,1.182,1.182v88.685C158.087,298.896,157.559,299.426,156.906,299.426z"/>
			</g>
		</g>
		<g>
			<g>
				<path fill="#0A7575" d="M151.809,295.102c-0.649,0-1.18-0.528-1.18-1.182v-9.832c0-0.652,0.529-1.181,1.18-1.181
					c0.653,0,1.184,0.526,1.184,1.181v9.832C152.992,294.573,152.462,295.102,151.809,295.102z"/>
			</g>
		</g>
		<g>
			<g>
				<path fill="#0A7575" d="M161.472,295.102c-0.651,0-1.181-0.528-1.181-1.182v-9.832c0-0.652,0.528-1.181,1.181-1.181
					c0.653,0,1.183,0.526,1.183,1.181v9.832C162.655,294.573,162.125,295.102,161.472,295.102z"/>
			</g>
		</g>
		<path fill="#0A7575" d="M160.703,344.789c0.718-0.675,72.102-67.645,95.021-90.598c29.178-29.217,86.359-92.312,86.676-100.834
			c0.023-0.651,1.158-2.585,1.179,1.877c0.053,11.168-68.05,82.473-86.183,100.626c-13.947,13.967-45.796,44.193-68.795,65.907
			c2.503,7.415-0.252,20.55-5.703,26.001l-0.646,0.646c0,0,0.851-13.122-10.474-10.793c-5.725,5.386-9.301,8.741-9.459,8.89
			c-0.229,0.214-0.521,0.318-0.81,0.318c-0.314,0-0.629-0.125-0.86-0.372C160.203,345.98,160.226,345.232,160.703,344.789z"/>
		<path fill="#0A7575" d="M343.204,344.789c-0.718-0.675-72.102-67.645-95.021-90.598c-29.177-29.217-86.359-92.312-86.675-100.834
			c-0.024-0.651-1.158-2.585-1.179,1.877c-0.053,11.168,68.05,82.473,86.182,100.626c13.948,13.967,45.796,44.193,68.795,65.907
			c-2.503,7.415,0.252,20.55,5.703,26.001l0.646,0.646c0,0-0.851-13.122,10.474-10.793c5.725,5.386,9.301,8.741,9.459,8.89
			c0.229,0.214,0.521,0.318,0.81,0.318c0.314,0,0.629-0.125,0.86-0.372C343.704,345.98,343.682,345.232,343.204,344.789z"/>
		<g transform="translate(607.000000, 663.000000)">
			<g>
				<g>
					<path fill="#0A7575" d="M-345.933-475.661c0,2.812-2.28,5.095-5.088,5.095h-9.354c-2.809,0-5.088-2.281-5.088-5.095v-10.19
						c0-0.936-0.763-1.699-1.696-1.699c-0.938,0-1.697,0.765-1.697,1.699v10.19c0,4.687,3.796,8.49,8.481,8.49h9.354
						c4.68,0,8.485-3.803,8.485-8.49v-27.171c0-0.938-0.762-1.698-1.7-1.698s-1.697,0.761-1.697,1.698V-475.661L-345.933-475.661z"
						/>
				</g>
			</g>
			<g>
				<g>
					<path fill="#0A7575" d="M-353.574-475.661c0,0.938,0.761,1.698,1.696,1.698c0.938,0,1.697-0.76,1.697-1.698v-16.98
						c0-0.938-0.76-1.7-1.697-1.7s-1.696,0.763-1.696,1.7V-475.661z"/>
				</g>
			</g>
			<g>
				<g>
					<path fill="#0A7575" d="M-361.219-475.661c0,0.938,0.765,1.698,1.7,1.698c0.939,0,1.699-0.76,1.699-1.698v-7.646
						c0-0.934-0.76-1.695-1.699-1.695c-0.937,0-1.7,0.763-1.7,1.695V-475.661z"/>
				</g>
			</g>
			<g>
				<g>
					<path fill="#0A7575" d="M-368.856-501.133c0-1.877,1.519-3.397,3.395-3.397c0.411,0,0.808,0.069,1.184,0.21
						c1.004,0.374,2.099-0.267,2.269-1.322c0.361-2.254,2.485-3.983,5.04-3.983c2.128,0,3.99,1.205,4.742,2.971
						c0.408,0.948,1.557,1.32,2.439,0.789c0.393-0.236,0.84-0.363,1.309-0.363c1.408,0,2.547,1.144,2.547,2.549
						c0,1.406-1.139,2.55-2.547,2.55c-0.758,0-1.457-0.332-1.938-0.896c-0.672-0.788-1.891-0.795-2.57-0.014
						c-0.96,1.103-2.407,1.758-3.979,1.758c-1.004,0-1.956-0.264-2.771-0.749c-0.939-0.562-2.154-0.102-2.488,0.938
						c-0.256,0.804-0.805,1.48-1.532,1.906c-0.527,0.301-0.851,0.861-0.851,1.469v6.629c0,0.935-0.761,1.695-1.7,1.695
						c-0.937,0-1.7-0.762-1.7-1.695v-8.226c0-0.335-0.095-0.661-0.278-0.939C-368.66-499.811-368.856-500.453-368.856-501.133z
						 M-371.408-490.094c0,2.812,2.282,5.092,5.095,5.092c2.811,0,5.094-2.279,5.094-5.092l0.006-5.739
						c1.033-0.829,1.377-1.529,1.377-1.529c0.907,0.312,1.873,0.474,2.866,0.474c1.675,0,3.272-0.464,4.63-1.301
						c0.709-0.44,0.674-0.475,0.674-0.475c0.937,0.596,2.035,0.927,3.188,0.927c3.281,0,5.944-2.662,5.944-5.944
						c0-3.28-2.663-5.944-5.944-5.944c-1.092,0-1.418,0.204-1.418,0.204c-1.547-2.211-4.182-3.603-7.073-3.603
						c-3.17,0-5.981,1.664-7.439,4.175c-0.469,0.812-0.4,0.953-0.4,0.953s-0.435-0.031-0.65-0.031c-3.751,0-6.793,3.04-6.793,6.796
						c0,1.174,0.302,2.312,0.86,3.314L-371.408-490.094z"/>
				</g>
			</g>
			<g>
				<g>
					<path fill="#0A7575" d="M-338.29-497.737c0.934,0,1.693,0.764,1.693,1.697v13.16c0,1.64-1.332,2.972-2.969,2.972h-4.672
						c-0.938,0-1.697,0.761-1.697,1.699s0.762,1.696,1.697,1.696h4.672c3.516,0,6.367-2.853,6.367-6.367v-13.16
						c0-2.811-2.283-5.094-5.094-5.094h-5.945c-0.938,0-1.697,0.759-1.697,1.696s0.762,1.699,1.697,1.699L-338.29-497.737
						L-338.29-497.737z"/>
				</g>
			</g>
		</g>
		<path fill="#0A7575" d="M369.625,281.055h-8.137c-0.75,0-1.356,0.68-1.356,1.522v2.705h-7.93h-5.649h-8.729v-2.705
			c0-0.845-0.608-1.522-1.358-1.522h-8.136c-0.752,0-1.358,0.68-1.358,1.522v8.928c0,0.84,0.606,1.519,1.358,1.519h8.136
			c0.75,0,1.358-0.678,1.358-1.519v-2.997c1.655-0.013,3.309,0.104,4.104,0.553c1.832,1.027,3.473,1.916,4.705,2.574
			c0.562,0.6,1.313,1.008,2.162,1.139c0.072,0.039,0.116,0.062,0.116,0.062h0.931c0,0,0.043-0.021,0.114-0.06
			c0.852-0.131,1.604-0.541,2.169-1.143c1.232-0.658,2.87-1.545,4.7-2.572c0.666-0.375,1.938-0.518,3.307-0.547v2.991
			c0,0.841,0.606,1.519,1.356,1.519h8.137c0.748,0,1.355-0.678,1.355-1.519v-8.928C370.981,281.734,370.373,281.055,369.625,281.055
			z"/>
		<path fill="#0A7575" d="M369.625,222.643h-8.137c-0.75,0-1.356,0.679-1.356,1.522v2.705h-7.93v-4.821
			c0-1.264-1.022-2.288-2.284-2.288h-1.076c-1.265,0-2.289,1.024-2.289,2.288v4.821h-8.729v-2.705c0-0.845-0.608-1.522-1.358-1.522
			h-8.136c-0.752,0-1.358,0.679-1.358,1.522v8.928c0,0.84,0.606,1.519,1.358,1.519h8.136c0.75,0,1.358-0.679,1.358-1.519v-2.998
			c1.655-0.012,3.309,0.105,4.104,0.552c1.832,1.029,3.473,1.917,4.705,2.576c0.562,0.598,1.313,1.006,2.162,1.139
			c0.072,0.038,0.116,0.06,0.116,0.06h0.931c0,0,0.043-0.022,0.114-0.059c0.852-0.131,1.604-0.541,2.169-1.142
			c1.232-0.658,2.87-1.545,4.7-2.573c0.666-0.375,1.938-0.517,3.307-0.546v2.992c0,0.84,0.606,1.52,1.356,1.52h8.137
			c0.748,0,1.355-0.679,1.355-1.52v-8.928C370.981,223.323,370.373,222.643,369.625,222.643z M349.377,232.848
			c-1.22,0-2.201-0.985-2.201-2.201c0-1.217,0.981-2.202,2.201-2.202c1.215,0,2.2,0.985,2.2,2.202
			C351.577,231.863,350.592,232.849,349.377,232.848z"/>
		<path fill="#0A7575" d="M364.942,224.046c-1.75-11.337-13.99-16.367-15.562-16.367h-0.001c-0.001,0-0.001,0-0.001,0h-0.001
			c-1.587,0.006-13.812,5.037-15.559,16.367c-0.913,5.913-0.862,13.036-0.812,19.924c0.011,1.562,0.022,3.117,0.022,4.671
			c0.032,2.233,0.125,5.673,0.524,9.716c0.222,2.233,0.422,4.642,0.629,7.101c0.663,7.883,1.347,16.032,2.81,21.162
			c0.746,2.618,2.569,7.788,3.778,11.211c0.462,1.312,0.835,2.371,1.023,2.933c0.534,1.605,2.03,2.686,3.774,2.686h7.664
			c1.693,0,3.189-1.079,3.725-2.682c0.188-0.562,0.561-1.613,1.02-2.918c1.209-3.427,3.039-8.606,3.785-11.229
			c1.462-5.132,2.147-13.291,2.812-21.183c0.205-2.453,0.405-4.854,0.627-7.081c0.301-3.062,0.473-6.241,0.524-9.734
			c0-1.551,0.012-3.122,0.021-4.695C365.799,237.053,365.85,229.946,364.942,224.046z M363.386,243.91
			c-0.009,1.581-0.021,3.156-0.021,4.695c-0.054,3.409-0.222,6.524-0.517,9.52c-0.221,2.238-0.422,4.65-0.629,7.116
			c-0.657,7.776-1.331,15.819-2.729,20.731c-0.729,2.553-2.543,7.689-3.742,11.09c-0.467,1.319-0.844,2.385-1.032,2.955
			c-0.212,0.637-0.807,1.065-1.479,1.065h-0.054h-2.625v-68.584c-0.342,0.219-0.746,0.35-1.182,0.349
			c-0.436,0-0.839-0.13-1.18-0.347v68.583h-2.678c-0.673,0-1.271-0.427-1.483-1.07c-0.19-0.568-0.567-1.641-1.037-2.969
			c-1.196-3.395-3.007-8.523-3.731-11.072c-1.4-4.908-2.074-12.945-2.729-20.713c-0.207-2.472-0.409-4.89-0.633-7.135
			c-0.392-3.956-0.479-7.327-0.513-9.502c-0.002-1.542-0.013-3.104-0.022-4.669c-0.051-6.796-0.103-13.822,0.779-19.546
			c1.272-8.239,8.924-12.628,12.047-13.938v18.322c0.341-0.217,0.744-0.347,1.18-0.347s0.84,0.131,1.182,0.35v-18.327
			c3.121,1.309,10.775,5.695,12.05,13.939C363.486,230.12,363.435,237.131,363.386,243.91z"/>
	</g>
	<path fill="#0A7575" d="M290.619,355.786c-0.03,0-0.062-0.001-0.094-0.003c-18.239-1.128-28.951-4.657-30.979-10.206
		c-0.797-2.182-0.159-4.478,1.75-6.301c1.591-1.519,3.787-2.445,5.909-2.625c-1.304-1.649-2.762-2.584-4.412-2.837
		c-5.63-0.869-13.617,6.41-19.13,11.958c-11.296,11.367-22.912,9.08-23.401,8.978c-0.811-0.171-1.33-0.966-1.159-1.776
		c0.171-0.81,0.96-1.329,1.771-1.16l0,0c0.427,0.087,10.565,2.004,20.661-8.156c9.757-9.818,16.246-13.643,21.714-12.809
		c3.336,0.513,6.108,2.863,8.239,6.987l1.896,3.666l-3.807-1.594c-1.761-0.739-4.548-0.048-6.209,1.538
		c-0.723,0.69-1.484,1.788-1.004,3.102c0.568,1.557,4.294,6.753,28.346,8.241c0.827,0.051,1.455,0.763,1.404,1.59
		C292.066,355.174,291.405,355.786,290.619,355.786z"/>
</g>
</svg>
