<?xml version="1.0" encoding="utf-8"?>
<!-- Generator: Adobe Illustrator 16.0.0, SVG Export Plug-In . SVG Version: 6.00 Build 0)  -->
<!DOCTYPE svg PUBLIC "-//W3C//DTD SVG 1.1//EN" "http://www.w3.org/Graphics/SVG/1.1/DTD/svg11.dtd">
<svg version="1.1" id="Layer_1" xmlns="http://www.w3.org/2000/svg" xmlns:xlink="http://www.w3.org/1999/xlink" x="0px" y="0px"
	 width="506.85px" height="521.918px" viewBox="0 0 506.85 521.918" enable-background="new 0 0 506.85 521.918"
	 xml:space="preserve">
<g>
	<g>
		<path fill="#FFFFFF" d="M2579.645,1470.503c-1.425,0-3.621,0.06-6.398,0.133c-4.798,0.128-11.363,0.305-18.657,0.305
			c-39.273,0-52.091-5.273-55.927-9.699c-7.399-8.539,1.235-21.052,6.396-28.525c2.892-4.188,4.209-6.098,3.244-7.936
			c-0.222-0.419-0.899-1.396-2.474-1.396c-0.387,0-0.812,0.061-1.299,0.183c-24.467,6.115-42.667,20.223-51.249,39.713
			c-4.246,9.644-11.282,14.459-17.104,16.554c-0.663-8.091-2.988-36.688-3.313-43.46c-0.562-11.691-2.711-15.47-2.951-15.859
			l-0.702-1.133l-1.325,0.134c-0.135,0.015-3.32,0.348-6.539,1.783c-2.146,0.958-3.822,2.183-5.015,3.634
			c-1.19-1.451-2.866-2.677-5.015-3.634c-3.22-1.438-6.404-1.771-6.539-1.783l-1.325-0.134l-0.702,1.133
			c-0.241,0.395-2.389,4.169-2.952,15.858c-0.054,1.122-0.128,3.123-0.216,5.482l-0.071,1.935
			c-0.099,2.614-0.749,12.721-1.375,22.095c-6.489,1.438-17.714,13.521-19.976,16.016l-0.553,0.608v65.303v4.27v69.396h204.172
			v-69.396v-4.27v-77.306L2579.645,1470.503L2579.645,1470.503z M2403.773,1443.946l0.07-1.935c0.087-2.341,0.159-4.322,0.215-5.438
			c0.336-6.979,1.254-10.793,1.828-12.561c2.771,0.578,8.31,2.312,8.31,6.938v1.801v11.982v6.299c0,1.18,0.955,2.135,2.135,2.135
			s2.135-0.954,2.135-2.135v-6.299v-11.982v-1.801c0-4.595,5.535-6.345,8.307-6.934c0.582,1.786,1.495,5.598,1.83,12.556
			c0.346,7.169,2.812,37.395,3.387,44.365c-1.004,0.169-1.918,0.249-2.699,0.254c-3.332,0-7.121-2.091-10.821-4.645v-7.122
			c0-1.18-0.955-2.135-2.136-2.135c-1.18,0-2.135,0.954-2.135,2.135v4.016c-0.156-0.118-0.315-0.237-0.475-0.354
			c-3.975-2.987-7.771-5.838-11.332-6.91C2403.02,1456.753,2403.676,1446.581,2403.773,1443.946z M2402.094,1470.576
			c2.66,1.091,5.896,3.539,9.062,5.925c1.007,0.757,2.021,1.518,3.039,2.259v48.474c-12.221-19.536-12.976-41.954-13.012-43.531
			C2401.277,1482.503,2401.654,1477.077,2402.094,1470.576z M2454.08,1606.181h-3.222h-4.35h-3.22l-7.117-27.28v27.28h-7.567
			v-14.348c-0.188-0.641-0.479-1.188-0.877-1.639c-0.396-0.452-0.95-0.754-1.666-0.902c0.149-0.265,0.341-0.488,0.565-0.68
			c0.188-0.188,0.439-0.348,0.762-0.479c0.32-0.131,0.727-0.196,1.216-0.196v-24.965h3.39h4.18h3.391l6.947,26.604v-26.604h7.566
			L2454.08,1606.181L2454.08,1606.181z M2488.025,1569.976v0.562v28.299c0,1.018-0.197,1.978-0.593,2.881
			c-0.396,0.902-0.935,1.693-1.61,2.373c-0.677,0.678-1.469,1.215-2.371,1.607c-0.903,0.396-1.864,0.596-2.882,0.596h-0.112h-10.055
			h-0.111h-0.51c-0.979-0.076-1.895-0.32-2.738-0.734c-0.849-0.413-1.582-0.95-2.203-1.609c-0.621-0.656-1.11-1.432-1.469-2.313
			c-0.358-0.886-0.536-1.815-0.536-2.796v-6.894c-0.227-0.64-0.527-1.187-0.904-1.639c-0.375-0.451-0.923-0.753-1.638-0.902
			c0.149-0.264,0.339-0.487,0.564-0.678c0.188-0.188,0.439-0.349,0.762-0.479c0.32-0.132,0.726-0.196,1.216-0.196v-17.511v-7.455
			h6.946h0.621v19.543v10.845v2.146c0,0.867,0.302,1.604,0.904,2.203c0.603,0.604,1.336,0.902,2.2,0.902h4.521
			c0.68,0,1.252-0.234,1.726-0.706c0.471-0.472,0.705-1.024,0.705-1.666v-13.728v-19.543h7.568L2488.025,1569.976L2488.025,1569.976
			z M2522.48,1574.777h-7.568v-1.074c0-0.863-0.319-1.607-0.96-2.229c-0.642-0.62-1.395-0.911-2.261-0.875h-3.67
			c-0.867-0.036-1.621,0.255-2.261,0.875c-0.643,0.621-0.96,1.365-0.96,2.229v21.859c0,0.866,0.312,1.602,0.932,2.202
			c0.621,0.604,1.364,0.904,2.229,0.904h4.521c0.679,0,1.252-0.235,1.724-0.707c0.472-0.473,0.707-1.024,0.707-1.666v-1.751h7.567
			v4.234c0,1.019-0.198,1.979-0.599,2.88c-0.397,0.904-0.938,1.695-1.622,2.373c-0.685,0.68-1.479,1.216-2.393,1.609
			c-0.909,0.396-1.878,0.594-2.899,0.594h-0.059H2504.8h-0.058h-0.563c-0.979-0.075-1.884-0.318-2.711-0.732
			c-0.828-0.414-1.562-0.951-2.202-1.608c-0.643-0.659-1.14-1.433-1.497-2.316c-0.356-0.883-0.537-1.814-0.537-2.796v-6.606
			c-0.188-0.643-0.471-1.194-0.848-1.666c-0.377-0.473-0.94-0.765-1.693-0.876c0.148-0.265,0.339-0.489,0.563-0.68
			c0.188-0.188,0.44-0.349,0.763-0.479c0.319-0.132,0.726-0.197,1.215-0.197v-17.792c0-0.979,0.179-1.911,0.537-2.796
			c0.356-0.885,0.854-1.657,1.497-2.313c0.642-0.659,1.374-1.195,2.202-1.61c0.827-0.413,1.729-0.657,2.711-0.733h10.729h0.06
			c1.021,0,1.99,0.197,2.899,0.594c0.911,0.396,1.707,0.933,2.392,1.609s1.226,1.468,1.623,2.371
			c0.396,0.904,0.598,1.863,0.598,2.882V1574.777L2522.48,1574.777z M2549.027,1606.294l-1.582-9.207h-9.603l-1.641,9.207h-7.625
			l2.543-14.519l-0.059,0.058c-0.227-0.641-0.525-1.194-0.902-1.666s-0.94-0.78-1.693-0.934c0.148-0.264,0.34-0.488,0.562-0.679
			c0.188-0.188,0.452-0.349,0.791-0.479c0.34-0.131,0.754-0.195,1.242-0.195c0.113,0,0.232,0.01,0.367,0.026
			c0.132,0.021,0.231,0.027,0.311,0.027l4.406-25.306h2.033h3.272h2.315h3.39h1.921l7.625,43.661h-7.68v0.003h0.005V1606.294z
			 M2577.51,1547.809h-195.637v-63.65c4.77-5.174,12.002-11.928,15.95-13.71c-0.446,6.622-0.829,12.091-0.903,13.017l-0.009,0.097
			l0.001,0.099c0.012,1.188,0.476,29.363,17.715,51.675c0.42,0.545,1.053,0.828,1.688,0.828c0.455,0,0.914-0.146,1.304-0.443
			c0.424-0.326,0.68-0.778,0.776-1.266c0.01-0.037,0.02-0.074,0.023-0.112c0.007-0.037,0.009-0.073,0.013-0.109
			c0.013-0.092,0.026-0.182,0.026-0.274v-52.287c3.56,2.207,7.188,3.801,10.896,3.801c12.963-0.077,23.515-10.662,27.83-20.463
			c7.718-17.527,23.855-30.436,45.621-36.562c-0.412,0.612-0.854,1.256-1.265,1.85c-5.479,7.938-15.677,22.709-6.107,33.745
			c6.517,7.521,25.862,11.175,59.148,11.175c7.352,0,13.952-0.178,18.771-0.307c1.595-0.043,2.991-0.08,4.151-0.104v73.008h0.004
			v-0.005H2577.51z"/>
		<polygon fill="#FFFFFF" points="2542.475,1570.257 2539.143,1589.52 2546.146,1589.52 2542.814,1570.257 		"/>
		<text transform="matrix(1 0 0 1 2423.3157 1537.052)" fill="#FFFFFF" font-family="'MelmaBlack'" font-size="56.483">Meia</text>
	</g>
</g>
<g>
	<path fill="#FFFFFF" d="M253.426,31.656C126.784,31.656,24.12,134.319,24.12,260.96c0,126.64,102.664,229.303,229.306,229.303
		S482.729,387.6,482.729,260.96C482.729,134.319,380.067,31.656,253.426,31.656z M253.426,414.436
		c-84.764,0-153.479-68.715-153.479-153.477c0-84.764,68.717-153.479,153.479-153.479c84.762,0,153.478,68.717,153.478,153.479
		C406.904,345.721,338.188,414.436,253.426,414.436z"/>
</g>
<g>
	<path d="M74.849,327.946c-3.333,1.325-5.271,5.202-3.807,8.524c0.649,1.637,1.957,2.774,3.558,3.465
		c0.343,0.146,0.526,0.549,0.377,0.895c-0.146,0.342-0.557,0.505-0.897,0.355c-1.997-0.793-3.531-2.268-4.319-4.25
		c-1.612-4.047,0.497-8.629,4.586-10.259c4.089-1.627,8.854,0.409,10.408,4.312c0.568,1.435,0.606,3.312-0.036,4.256l0.891-0.38
		c0.409-0.16,0.695,0.08,0.817,0.389c0.122,0.306,0.088,0.695-0.321,0.859l-2.982,1.188c-0.327,0.131-0.74,0.104-0.902-0.303
		c-0.123-0.31-0.003-0.663,0.323-0.792l0.164-0.065c1.036-0.436,1.806-2.067,0.779-4.645
		C82.184,328.225,78.242,326.595,74.849,327.946z"/>
	<path d="M83.026,345.38l4.145,8.009l5.312-2.748l-0.181-0.352c-0.404-0.782,0.827-1.418,1.231-0.64l1,1.937
		c0.412,0.8-0.816,1.438-1.231,0.637l-0.181-0.353l-11.858,6.133l0.181,0.353c0.414,0.805-0.814,1.438-1.229,0.639l-1-1.936
		c-0.404-0.781,0.827-1.418,1.229-0.638l0.184,0.353l5.312-2.748l-4.143-8.01l-5.313,2.75l0.184,0.351
		c0.414,0.803-0.816,1.438-1.23,0.64l-1.001-1.938c-0.404-0.776,0.827-1.418,1.231-0.635l0.182,0.354l11.858-6.135l-0.184-0.353
		c-0.402-0.78,0.827-1.418,1.231-0.637l1,1.935c0.415,0.803-0.816,1.438-1.23,0.637l-0.181-0.351L83.026,345.38z"/>
	<path d="M93.6,370.191l7.799-5.047l-0.096-0.146c-0.49-0.761,0.674-1.514,1.164-0.753l0.946,1.459
		c0.478,0.735-0.688,1.49-1.165,0.753l-0.098-0.147l-7.778,5.035c-2.569,1.66-6.015,0.797-7.615-1.681
		c-1.604-2.479-0.98-5.975,1.588-7.637l7.781-5.032l-0.098-0.146c-0.478-0.738,0.688-1.492,1.165-0.754l0.944,1.459
		c0.491,0.76-0.673,1.514-1.165,0.754l-0.095-0.146l-7.798,5.047c-1.922,1.244-2.387,3.852-1.18,5.717
		C89.11,370.789,91.678,371.436,93.6,370.191z"/>
	<path d="M96.284,380.878c0.557,0.71-0.534,1.562-1.093,0.854l-1.343-1.715c-0.543-0.689,0.547-1.548,1.091-0.854l0.245,0.312
		l10.508-8.238l-0.176-0.226c-0.557-0.71,0.534-1.562,1.09-0.854l3.447,4.396c1.602,2.042,1.141,4.947-0.789,6.515
		c-1.6,1.312-3.844,1.338-5.562,0.145c-0.061-0.039-0.086-0.071-0.146-0.11l-2.308,6.114l0.421,0.536
		c0.557,0.71-0.534,1.563-1.09,0.854l-0.682-0.863c-0.081-0.104-0.333-0.354-0.103-0.953l2.715-6.771l-2.199-2.807l-4.275,3.354
		L96.284,380.878z M101.407,376.359l2.417,3.08c1.126,1.438,3.189,1.722,4.601,0.562c1.358-1.121,1.667-3.15,0.54-4.59l-2.416-3.081
		L101.407,376.359z"/>
	<path d="M107.468,394.314c0.618,0.656-0.392,1.605-1.01,0.949l-1.493-1.588c-0.604-0.641,0.407-1.592,1.01-0.949l0.272,0.289
		l9.73-9.151l-0.193-0.208c-0.618-0.655,0.392-1.604,1.01-0.948l3.83,4.069c1.776,1.896,1.579,4.83-0.203,6.564
		c-1.479,1.449-3.711,1.676-5.531,0.641c-0.061-0.034-0.092-0.062-0.152-0.099l-1.751,6.299l0.469,0.497
		c0.616,0.657-0.395,1.604-1.013,0.949l-0.753-0.804c-0.091-0.096-0.362-0.321-0.188-0.938l2.1-6.989l-2.44-2.598l-3.96,3.725
		L107.468,394.314z M112.167,389.352l2.684,2.854c1.251,1.33,3.334,1.427,4.635,0.142c1.253-1.238,1.378-3.287,0.127-4.617
		l-2.683-2.854L112.167,389.352z"/>
	<path d="M121.681,404.296l-2.901,1.485l0.082,0.071c0.66,0.582-0.259,1.622-0.918,1.039l-1.4-1.239
		c-0.659-0.583,0.26-1.621,0.919-1.037l0.214,0.188l12.74-6.562c-0.442-0.598,0.405-1.49,1.031-0.938l1.304,1.15
		c0.626,0.556-0.142,1.521-0.805,1.142l-4.941,13.46l0.198,0.177c0.657,0.583-0.262,1.621-0.919,1.037l-1.386-1.224
		c-0.676-0.602,0.243-1.64,0.918-1.04l0.066,0.061l1.122-3.062L121.681,404.296z M123.013,403.621l4.516,3.994l2.874-7.8
		L123.013,403.621z"/>
	<path d="M138.722,408.632c-1.275,1.71,0.25,3.421,1.341,4.864c1.547,1.863,2.563,4.073,0.906,6.3
		c-1.563,2.103-4.709,2.089-6.686,0.616c-1.344-0.997-1.807-2.439-1.954-3.678l-0.68,0.949c-0.263,0.353-0.649,0.284-0.916,0.087
		c-0.264-0.196-0.423-0.534-0.16-0.89l2.265-3.114c0,0,0.425-0.533,0.919-0.166c0.317,0.234,0.429,0.563,0.183,0.933l-0.052,0.071
		c-1.204,1.652-0.551,3.43,1.033,4.582c1.43,1.062,3.741,1.387,4.938-0.22c1.195-1.605,0.314-3.334-0.81-4.664
		c-2.129-2.519-2.797-4.604-1.404-6.479c1.458-1.96,4.276-1.837,6.06-0.509c1.059,0.786,1.822,2.044,1.803,3.29l0.547-0.772
		c0.263-0.354,0.632-0.298,0.897-0.102c0.265,0.198,0.44,0.549,0.179,0.901l-1.918,2.575c-0.211,0.282-0.575,0.479-0.928,0.216
		c-0.267-0.195-0.352-0.562-0.141-0.846c1.117-1.5,0.308-3.175-1.176-4.275C141.714,407.374,139.76,407.237,138.722,408.632z"/>
	<path d="M176.672,431.259c-0.826,1.97,1.063,3.263,2.473,4.399c1.949,1.438,3.466,3.338,2.396,5.896
		c-1.015,2.415-4.068,3.159-6.34,2.208c-1.542-0.646-2.34-1.936-2.781-3.1l-0.432,1.084c-0.17,0.405-0.562,0.434-0.866,0.305
		c-0.306-0.127-0.54-0.417-0.371-0.822l1.446-3.563c0,0,0.285-0.62,0.854-0.385c0.365,0.152,0.552,0.445,0.402,0.86l-0.034,0.08
		c-0.771,1.896,0.291,3.462,2.104,4.198c1.645,0.688,3.964,0.442,4.737-1.401c0.774-1.846-0.496-3.31-1.906-4.33
		c-2.672-1.932-3.821-3.796-2.921-5.945c0.944-2.253,3.707-2.812,5.756-1.95c1.219,0.51,2.264,1.545,2.541,2.759l0.348-0.88
		c0.17-0.407,0.542-0.441,0.846-0.312c0.305,0.127,0.561,0.426,0.391,0.83l-1.241,2.964c-0.136,0.322-0.441,0.602-0.849,0.43
		c-0.304-0.127-0.475-0.46-0.339-0.784c0.724-1.725-0.466-3.153-2.171-3.867C179.274,429.322,177.345,429.656,176.672,431.259z"/>
	<path d="M185.993,446.521l4.099-12.691l-0.168-0.053c-0.838-0.271-0.405-1.612,0.433-1.342l1.675,0.54
		c0.84,0.271,0.405,1.608-0.433,1.342l-0.167-0.057l-2.368,7.33l8.635-5.397c-0.441-0.42-0.032-1.396,0.721-1.153l1.652,0.533
		c0.86,0.275,0.429,1.616-0.433,1.341l-0.376-0.123l-5.604,3.467l-0.229,0.133l3.076,9.525l0.354,0.114
		c0.858,0.277,0.435,1.597-0.427,1.319l-1.654-0.533c-0.754-0.244-0.499-1.318,0.184-1.354l-2.729-8.306l-0.519,0.316l-3.258,2.001
		l-1.124,3.476l0.168,0.057c0.838,0.271,0.412,1.59-0.426,1.318l-1.678-0.542c-0.838-0.271-0.412-1.591,0.428-1.316L185.993,446.521
		z"/>
	<path d="M205.635,449.138l-1.816,2.707l0.107,0.022c0.859,0.189,0.561,1.543-0.299,1.354l-1.826-0.404
		c-0.86-0.188-0.562-1.543,0.298-1.354l0.279,0.062l7.953-11.923c-0.677-0.307-0.366-1.5,0.448-1.318l1.697,0.374
		c0.816,0.183,0.615,1.396-0.147,1.39l2.21,14.166l0.258,0.059c0.857,0.189,0.561,1.543-0.299,1.354l-1.807-0.399
		c-0.881-0.193-0.582-1.549,0.301-1.354l0.086,0.02l-0.504-3.221L205.635,449.138z M206.471,447.902l5.887,1.302l-1.271-8.214
		L206.471,447.902z"/>
	<path d="M223.146,456.934c-0.872-0.118-0.688-1.491,0.187-1.375l0.392,0.054l1.776-13.233l-4.383-0.591l-0.041,0.309
		c-0.117,0.872-1.491,0.688-1.374-0.188l0.132-0.979c0.052-0.395,0.354-0.663,0.77-0.606l11.559,1.552
		c0.436,0.061,0.605,0.437,0.561,0.784l-0.132,0.979c-0.117,0.874-1.491,0.688-1.374-0.186l0.041-0.306l-4.383-0.588l-1.775,13.235
		l0.394,0.053c0.894,0.119,0.71,1.494-0.187,1.373L223.146,456.934z"/>
	<path d="M238.208,449.701l6.483,0.309c0.878,0.043,0.812,1.448-0.065,1.407l-6.484-0.309l-0.282,5.957l7.627,0.359l0.017-0.309
		c0.041-0.88,1.426-0.812,1.384,0.064l-0.046,0.988c-0.02,0.353-0.254,0.691-0.694,0.673l-10.021-0.477
		c-0.901-0.043-0.836-1.427,0.063-1.386l0.286,0.015l0.63-13.342l-0.285-0.015c-0.899-0.043-0.836-1.43,0.065-1.386l10.023,0.476
		c0.461,0.021,0.662,0.404,0.625,0.755l-0.048,0.968c-0.041,0.881-1.426,0.813-1.384-0.063l0.016-0.309l-7.629-0.358
		L238.208,449.701z"/>
	<path d="M290.8,442.285c0.51,2.073,2.801,1.987,4.608,2.064c2.423-0.007,4.771,0.617,5.435,3.312
		c0.624,2.543-1.387,4.963-3.781,5.551c-1.625,0.397-3.028-0.161-4.08-0.834l0.304,1.127c0.104,0.428-0.196,0.685-0.521,0.762
		c-0.318,0.079-0.682-0.013-0.787-0.439l-0.961-3.729c0,0-0.141-0.669,0.457-0.813c0.387-0.094,0.711,0.029,0.836,0.452l0.021,0.084
		c0.51,1.982,2.296,2.61,4.19,2.122c1.731-0.424,3.451-2.001,2.976-3.946c-0.479-1.942-2.369-2.362-4.107-2.346
		c-3.302,0.039-5.336-0.774-5.893-3.043c-0.581-2.371,1.306-4.468,3.465-4.997c1.283-0.312,2.739-0.104,3.686,0.706l-0.246-0.914
		c-0.104-0.429,0.177-0.679,0.494-0.757c0.32-0.076,0.705,0.01,0.812,0.438l0.767,3.118c0.082,0.344,0.002,0.747-0.427,0.854
		c-0.321,0.08-0.657-0.088-0.741-0.431c-0.442-1.816-2.252-2.258-4.047-1.816C291.737,439.178,290.388,440.599,290.8,442.285z"/>
	<path d="M314.76,442.217l-2.963-8.8l-0.166,0.059c-0.854,0.286-1.3-1.024-0.441-1.313l1.646-0.554
		c0.833-0.281,1.273,1.032,0.44,1.312l-0.168,0.055l2.955,8.776c0.977,2.896-0.714,6.021-3.507,6.96s-6.025-0.524-7-3.422
		l-2.955-8.776l-0.168,0.057c-0.832,0.279-1.271-1.03-0.438-1.312l1.646-0.555c0.854-0.287,1.297,1.024,0.44,1.312l-0.168,0.059
		l2.964,8.797c0.729,2.168,3.139,3.262,5.242,2.554C314.229,446.71,315.488,444.384,314.76,442.217z"/>
	<path d="M325.793,442.24c0.822-0.363,1.386,0.903,0.559,1.271l-1.99,0.88c-0.807,0.354-1.366-0.911-0.562-1.271l0.36-0.157
		l-5.396-12.219l-0.263,0.115c-0.824,0.363-1.385-0.902-0.561-1.268l5.11-2.262c2.376-1.047,5.079,0.115,6.123,2.372
		c0.876,1.874,0.349,4.058-1.233,5.431c-0.054,0.047-0.093,0.062-0.144,0.108l5.354,3.742l0.624-0.271
		c0.824-0.364,1.384,0.9,0.561,1.27l-1.008,0.442c-0.12,0.055-0.424,0.233-0.946-0.137l-5.895-4.301l-3.261,1.439l2.195,4.971
		L325.793,442.24z M322.675,436.159l3.583-1.582c1.669-0.734,2.451-2.67,1.674-4.322c-0.751-1.594-2.646-2.394-4.312-1.653
		l-3.583,1.582L322.675,436.159z"/>
	<path d="M337.551,428.48l5.494-3.015c0.771-0.425,1.446,0.812,0.678,1.232l-5.494,3.016l2.88,5.243l0.152-0.084
		c0.79-0.435,1.457,0.779,0.667,1.215l-1.521,0.837c-0.792,0.436-1.459-0.781-0.667-1.216l0.152-0.084l-6.434-11.722l-0.254,0.138
		c-0.787,0.435-1.454-0.78-0.667-1.217l8.601-4.72c0.405-0.223,0.776-0.002,0.93,0.317l0.465,0.851
		c0.425,0.771-0.79,1.438-1.213,0.666l-0.147-0.271l-6.497,3.567L337.551,428.48z"/>
	<path d="M388.296,401.652c-0.618,0.627-1.604-0.349-0.984-0.975l0.278-0.281l-9.501-9.385l-3.107,3.146l0.222,0.219
		c0.624,0.618-0.348,1.604-0.976,0.982l-0.706-0.693c-0.279-0.278-0.312-0.684-0.021-0.979l8.193-8.295
		c0.312-0.312,0.715-0.224,0.964,0.024l0.704,0.693c0.626,0.617-0.349,1.604-0.975,0.985l-0.221-0.217l-3.104,3.146l9.498,9.383
		l0.278-0.28c0.635-0.644,1.619,0.331,0.984,0.976L388.296,401.652z"/>
	<path d="M397.575,389.587c0.573-0.694,1.644,0.188,1.065,0.884l-1.387,1.68c-0.562,0.679-1.629-0.207-1.067-0.885l0.254-0.306
		l-10.287-8.512l-0.183,0.223c-0.574,0.691-1.646-0.19-1.067-0.884l3.562-4.308c1.653-2,4.592-2.168,6.532-0.616
		c1.622,1.282,2.125,3.473,1.323,5.403c-0.022,0.065-0.053,0.102-0.078,0.164l6.464,0.951l0.438-0.525
		c0.574-0.691,1.641,0.188,1.065,0.886l-0.7,0.848c-0.084,0.104-0.273,0.399-0.907,0.305l-7.19-1.211l-2.271,2.746l4.186,3.463
		L397.575,389.587z M392.071,385.546l2.496-3.02c1.161-1.402,0.999-3.481-0.437-4.611c-1.388-1.086-3.436-0.955-4.6,0.448
		l-2.497,3.019L392.071,385.546z"/>
	<path d="M405.709,374.247l1.838,2.691l0.062-0.09c0.497-0.728,1.643,0.055,1.146,0.78l-1.056,1.543
		c-0.497,0.728-1.642-0.057-1.145-0.782l0.161-0.234l-8.099-11.814c-0.536,0.515-1.526-0.217-1.056-0.909l0.979-1.435
		c0.472-0.688,1.523-0.051,1.229,0.652l13.964,3.229l0.148-0.219c0.495-0.729,1.64,0.056,1.145,0.78l-1.042,1.525
		c-0.51,0.742-1.651-0.039-1.145-0.781l0.049-0.074l-3.176-0.729L405.709,374.247z M404.877,373.014l3.396-4.978l-8.094-1.881
		L404.877,373.014z"/>
	<path d="M423.261,352.877c0.386,0.213,0.366,0.604,0.206,0.895c-0.159,0.289-0.452,0.455-0.837,0.239l-0.646-0.331
		c0.262,1.479-0.116,2.928-0.706,4.035c-2.021,3.781-6.938,5.332-10.975,3.09c-4.04-2.242-5.288-7.062-3.121-10.966
		c0.749-1.347,2.104-2.479,3.243-2.579l-0.856-0.449c-0.385-0.213-0.378-0.588-0.218-0.875c0.16-0.289,0.485-0.513,0.87-0.297
		l2.809,1.56c0.309,0.171,0.548,0.507,0.335,0.892c-0.161,0.288-0.513,0.422-0.816,0.25l-0.153-0.086
		c-0.991-0.524-2.711-0.146-4.058,2.275c-1.721,3.098-0.704,7.156,2.581,9.031c3.285,1.877,7.337,0.701,9.085-2.354
		c0.615-1.115,1.043-2.742,0.895-4.06l-3.213-1.784l-2.07,3.731c-0.172,0.307-0.607,0.415-0.896,0.256
		c-0.316-0.148-0.538-0.523-0.312-0.93l2.412-4.346c0.183-0.327,0.562-0.472,0.927-0.269L423.261,352.877z"/>
	<path d="M425.438,329.747c4.21,1.797,6.058,6.771,4.341,10.799c-1.733,4.065-6.641,6.089-10.688,4.364
		c-4.291-1.831-6.122-6.849-4.413-10.854C416.471,329.848,421.49,328.064,425.438,329.747z M428.49,339.973
		c1.416-3.32-0.075-7.449-3.576-8.94c-3.34-1.425-7.517,0.118-9,3.602c-1.415,3.319,0.181,7.491,3.698,8.993
		C422.972,345.059,427.058,343.332,428.49,339.973z"/>
</g>
<g>
	<path d="M139.58,120.103c-1.433,0.803-2.697-1.45-1.268-2.255l0.646-0.362l-12.175-21.681l-0.646,0.362
		c-1.431,0.803-2.717-1.486-1.286-2.29l1.253-0.703c0.607-0.343,1.354-0.104,1.354-0.104c11.249,5.449,16.227,8.113,18.296,9.116
		l1.002-19.67c0,0,0.207-1.057,1.029-1.519l1.145-0.646c1.467-0.824,2.753,1.466,1.286,2.29l-0.646,0.363l12.177,21.681l0.645-0.359
		c1.466-0.824,2.733,1.43,1.268,2.253l-3.542,1.988c-1.468,0.824-2.732-1.431-1.268-2.255l0.646-0.359l-10.47-18.643l-1.123,16.773
		c-0.036,0.351-0.242,0.654-0.564,0.835c-0.286,0.161-0.704,0.254-1.043,0.067l-15.551-7.408l10.469,18.641l0.68-0.381
		c1.433-0.804,2.697,1.45,1.268,2.253L139.58,120.103z"/>
	<path d="M171.463,85.878l11.405-4.052c1.546-0.551,2.425,1.925,0.878,2.475l-11.404,4.052l3.721,10.479l13.416-4.767l-0.19-0.542
		c-0.552-1.545,1.886-2.411,2.435-0.863l0.618,1.738c0.22,0.619,0.053,1.375-0.721,1.649l-17.629,6.262
		c-1.587,0.563-2.45-1.873-0.864-2.436l0.502-0.18l-8.335-23.467l-0.502,0.179c-1.585,0.562-2.45-1.872-0.865-2.438l17.63-6.262
		c0.812-0.289,1.432,0.23,1.612,0.862l0.604,1.702c0.549,1.547-1.886,2.412-2.435,0.865l-0.193-0.542L167.73,75.36L171.463,85.878z"
		/>
	<path d="M204.359,90.207l0.32-0.077c1.637-0.387,2.231,2.13,0.595,2.517c-1.039,0.245-2.117,0.5-3.153,0.745
		c-1.64,0.388-2.232-2.129-0.598-2.516l0.32-0.075l-5.731-24.241l-0.318,0.075c-1.639,0.387-2.231-2.129-0.597-2.516l3.155-0.747
		c1.638-0.389,2.232,2.13,0.595,2.517l-0.317,0.076L204.359,90.207z"/>
	<path d="M218.666,81.63l-1.533,5.884l0.205-0.024c1.629-0.191,1.935,2.375,0.305,2.568l-3.463,0.411
		c-1.631,0.193-1.935-2.374-0.306-2.567l0.528-0.062l6.683-25.875c-1.379-0.126-1.568-2.418-0.021-2.604l3.221-0.382
		c1.549-0.184,1.939,2.083,0.591,2.533l12.593,23.588l0.489-0.058c1.629-0.194,1.935,2.374,0.304,2.564l-3.422,0.407
		c-1.671,0.198-1.978-2.369-0.306-2.566l0.162-0.02l-2.866-5.362L218.666,81.63z M219.38,78.942l11.165-1.323l-7.285-13.683
		L219.38,78.942z"/>
	<path d="M264.969,85.394l0.327,0.035c1.632,0.179,1.352,2.749-0.281,2.569l-3.262-0.358c-1.633-0.178-1.353-2.748,0.277-2.569
		l0.327,0.036l2.718-24.754l-0.53-0.058c-1.633-0.179-1.354-2.748,0.282-2.569l1.834,0.201c0.487,0.053,0.829,0.338,1.067,0.777
		l11.367,21.676l2.312,5.248l0.206-4.891l2.012-18.351l-0.326-0.036c-1.631-0.179-1.349-2.748,0.281-2.57l3.224,0.354
		c1.67,0.184,1.393,2.752-0.281,2.569l-0.326-0.036l-2.865,26.141c-0.116,1.062-0.985,1.088-1.682,1.012
		c-0.487-0.054-0.957-0.312-1.148-0.785l-13.147-25.381L264.969,85.394z"/>
	<path d="M313.99,87.033l4.593-16.692l-0.316-0.087c-1.619-0.446-0.938-2.939,0.688-2.493l3.125,0.86
		c1.582,0.436,0.896,2.928-0.688,2.49l-0.314-0.087l-4.582,16.652c-1.512,5.499-7.376,8.565-12.677,7.107s-8.771-7.095-7.26-12.593
		l4.582-16.651l-0.316-0.087c-1.58-0.438-0.896-2.929,0.688-2.492l3.125,0.858c1.622,0.446,0.937,2.938-0.688,2.492l-0.313-0.087
		l-4.593,16.692c-1.133,4.111,1.457,8.312,5.45,9.414C308.484,93.433,312.858,91.147,313.99,87.033z"/>
	<path d="M329.904,87.415c-2.75,6.097-0.328,13.804,5.942,16.36c2.993,1.35,6.219,1.185,9.257,0.033
		c0.65-0.247,1.416,0.053,1.662,0.704s-0.092,1.399-0.741,1.646c-3.702,1.524-7.67,1.535-11.298-0.101
		c-7.404-3.338-10.517-12.211-7.145-19.689c3.371-7.48,12.396-10.93,19.54-7.707c2.618,1.181,5.104,3.65,5.466,5.749l0.703-1.663
		c0.34-0.749,1.033-0.795,1.597-0.542c0.561,0.253,1.022,0.819,0.688,1.568l-2.462,5.46c-0.271,0.601-0.854,1.102-1.604,0.765
		c-0.562-0.253-0.859-0.886-0.593-1.482l0.138-0.299c0.82-1.925-0.263-5.113-4.977-7.237
		C340.097,78.284,332.701,81.206,329.904,87.415z"/>
	<path d="M359.771,109.99l-4.957,3.521l0.172,0.112c1.372,0.898-0.045,3.062-1.418,2.163l-2.918-1.913
		c-1.372-0.899,0.045-3.062,1.419-2.161l0.444,0.292l21.753-15.524c-0.978-0.98,0.354-2.858,1.658-2.004l2.712,1.777
		c1.305,0.854,0.146,2.844-1.177,2.317l-5.521,26.163l0.412,0.271c1.372,0.898-0.044,3.062-1.418,2.163l-2.884-1.892
		c-1.405-0.922,0.011-3.084,1.419-2.16l0.139,0.09l1.249-5.952L359.771,109.99z M362.047,108.39l9.401,6.164l3.218-15.163
		L362.047,108.39z"/>
</g>
<g>
	<path d="M359.806,414.598c0-1.186-0.959-2.143-2.143-2.143c-1.182,0-2.143,0.957-2.143,2.143c0,1.187,0.961,2.146,2.143,2.146
		C358.847,416.741,359.806,415.782,359.806,414.598z"/>
</g>
<g>
	<circle cx="269.577" cy="448.667" r="2.143"/>
</g>
<g>
	<circle cx="156.906" cy="426.943" r="2.145"/>
</g>
<g>
	<g>
		<g>
			<g>
				<path fill="#FFFFFF" d="M161.381,302.747l-0.467-0.008l-4.01-3.016l-4.005,3.016l-0.467,0.008c-1.882,0-3.542-1.197-4.134-2.981
					c-0.673-2.007-1.39-4.373-2.131-7.043l-0.57,0.006l-1.834-9.438c-2.887-12.483-4.618-24.287-4.738-32.345
					c0-25.58,14.467-41.229,17.421-42.475l0.458-0.192l0.459,0.192c2.955,1.243,17.422,16.895,17.422,42.457
					c-0.12,8.06-1.854,19.865-4.748,32.402l-1.824,9.396l-0.569-0.006c-0.743,2.67-1.46,5.036-2.134,7.047
					C164.92,301.549,163.26,302.747,161.381,302.747z M147.887,290.059l0.303,1.107c0.822,3.01,1.615,5.647,2.354,7.85
					c0.236,0.724,0.855,1.234,1.589,1.346l4.773-3.596l4.776,3.596c0.731-0.108,1.349-0.622,1.587-1.342
					c0.738-2.203,1.53-4.844,2.354-7.854l0.304-1.107l0.38,0.094l1.42-7.312c2.869-12.424,4.578-24.045,4.695-31.929
					c0-23.832-12.565-37.632-15.52-39.951c-2.936,2.308-15.515,16.106-15.515,39.969c0.118,7.878,1.828,19.502,4.688,31.871
					l1.429,7.354L147.887,290.059z"/>
			</g>
		</g>
		<g>
			<g>
				<path fill="#FFFFFF" d="M156.906,299.426c-0.649,0-1.181-0.529-1.181-1.182V209.56c0-0.65,0.529-1.182,1.181-1.182
					c0.652,0,1.183,0.527,1.183,1.182v88.686C158.087,298.896,157.559,299.426,156.906,299.426z"/>
			</g>
		</g>
		<g>
			<g>
				<path fill="#FFFFFF" d="M151.809,295.102c-0.648,0-1.18-0.528-1.18-1.182v-9.832c0-0.652,0.529-1.182,1.18-1.182
					c0.653,0,1.185,0.526,1.185,1.182v9.832C152.992,294.573,152.462,295.102,151.809,295.102z"/>
			</g>
		</g>
		<g>
			<g>
				<path fill="#FFFFFF" d="M161.472,295.102c-0.651,0-1.181-0.528-1.181-1.182v-9.832c0-0.652,0.527-1.182,1.181-1.182
					s1.183,0.526,1.183,1.182v9.832C162.655,294.573,162.125,295.102,161.472,295.102z"/>
			</g>
		</g>
		<path fill="#FFFFFF" d="M160.703,344.789c0.718-0.676,72.102-67.646,95.021-90.599c29.178-29.217,86.358-92.312,86.676-100.834
			c0.023-0.65,1.158-2.585,1.179,1.877c0.054,11.168-68.05,82.474-86.183,100.626c-13.947,13.968-45.796,44.193-68.795,65.907
			c2.503,7.415-0.252,20.55-5.703,26.001l-0.646,0.646c0,0,0.851-13.122-10.475-10.793c-5.725,5.386-9.301,8.74-9.459,8.89
			c-0.229,0.214-0.521,0.318-0.81,0.318c-0.314,0-0.629-0.125-0.86-0.372C160.203,345.98,160.226,345.232,160.703,344.789z"/>
		<path fill="#FFFFFF" d="M343.203,344.789c-0.718-0.676-72.102-67.646-95.021-90.599c-29.177-29.217-86.358-92.312-86.675-100.834
			c-0.024-0.65-1.158-2.585-1.179,1.877c-0.054,11.168,68.05,82.474,86.182,100.626c13.948,13.968,45.796,44.193,68.795,65.907
			c-2.503,7.415,0.252,20.55,5.703,26.001l0.646,0.646c0,0-0.851-13.122,10.475-10.793c5.725,5.386,9.301,8.74,9.459,8.89
			c0.229,0.214,0.521,0.318,0.81,0.318c0.314,0,0.629-0.125,0.86-0.372C343.703,345.98,343.682,345.232,343.203,344.789z"/>
		<g transform="translate(607.000000, 663.000000)">
			<g>
				<g>
					<path fill="#FFFFFF" d="M-345.933-475.661c0,2.812-2.279,5.095-5.088,5.095h-9.354c-2.81,0-5.088-2.281-5.088-5.095v-10.19
						c0-0.936-0.764-1.699-1.696-1.699c-0.938,0-1.697,0.766-1.697,1.699v10.19c0,4.687,3.796,8.49,8.481,8.49h9.354
						c4.68,0,8.485-3.804,8.485-8.49v-27.171c0-0.938-0.762-1.698-1.7-1.698s-1.697,0.761-1.697,1.698V-475.661L-345.933-475.661z"
						/>
				</g>
			</g>
			<g>
				<g>
					<path fill="#FFFFFF" d="M-353.574-475.661c0,0.938,0.761,1.698,1.696,1.698c0.938,0,1.696-0.761,1.696-1.698v-16.98
						c0-0.938-0.76-1.7-1.696-1.7c-0.938,0-1.696,0.764-1.696,1.7V-475.661z"/>
				</g>
			</g>
			<g>
				<g>
					<path fill="#FFFFFF" d="M-361.219-475.661c0,0.938,0.766,1.698,1.7,1.698c0.939,0,1.699-0.761,1.699-1.698v-7.646
						c0-0.934-0.76-1.694-1.699-1.694c-0.937,0-1.7,0.763-1.7,1.694V-475.661z"/>
				</g>
			</g>
			<g>
				<g>
					<path fill="#FFFFFF" d="M-368.856-501.133c0-1.878,1.52-3.397,3.396-3.397c0.411,0,0.808,0.069,1.184,0.21
						c1.004,0.374,2.099-0.267,2.27-1.322c0.36-2.254,2.484-3.982,5.04-3.982c2.128,0,3.989,1.205,4.741,2.971
						c0.408,0.948,1.558,1.32,2.439,0.789c0.393-0.236,0.84-0.363,1.309-0.363c1.408,0,2.547,1.145,2.547,2.549
						c0,1.406-1.139,2.551-2.547,2.551c-0.758,0-1.457-0.332-1.938-0.896c-0.672-0.788-1.892-0.795-2.57-0.014
						c-0.96,1.103-2.407,1.758-3.979,1.758c-1.005,0-1.956-0.264-2.771-0.749c-0.938-0.562-2.154-0.102-2.488,0.938
						c-0.256,0.805-0.805,1.48-1.531,1.906c-0.527,0.301-0.852,0.861-0.852,1.469v6.63c0,0.935-0.761,1.694-1.7,1.694
						c-0.937,0-1.699-0.762-1.699-1.694v-8.227c0-0.335-0.096-0.661-0.278-0.938C-368.66-499.811-368.856-500.453-368.856-501.133z
						 M-371.408-490.094c0,2.812,2.282,5.093,5.095,5.093c2.812,0,5.094-2.279,5.094-5.093l0.007-5.738
						c1.032-0.829,1.377-1.529,1.377-1.529c0.906,0.312,1.873,0.474,2.865,0.474c1.676,0,3.272-0.464,4.631-1.301
						c0.709-0.439,0.674-0.475,0.674-0.475c0.937,0.596,2.035,0.927,3.188,0.927c3.281,0,5.944-2.662,5.944-5.944
						c0-3.279-2.663-5.943-5.944-5.943c-1.092,0-1.418,0.204-1.418,0.204c-1.547-2.211-4.182-3.604-7.072-3.604
						c-3.171,0-5.981,1.664-7.439,4.175c-0.469,0.812-0.4,0.953-0.4,0.953s-0.435-0.031-0.649-0.031
						c-3.751,0-6.793,3.04-6.793,6.797c0,1.174,0.302,2.312,0.859,3.313L-371.408-490.094z"/>
				</g>
			</g>
			<g>
				<g>
					<path fill="#FFFFFF" d="M-338.29-497.737c0.934,0,1.692,0.764,1.692,1.697v13.16c0,1.64-1.332,2.972-2.969,2.972h-4.672
						c-0.938,0-1.697,0.761-1.697,1.699c0,0.938,0.763,1.695,1.697,1.695h4.672c3.517,0,6.367-2.853,6.367-6.366v-13.16
						c0-2.812-2.283-5.095-5.094-5.095h-5.945c-0.938,0-1.697,0.76-1.697,1.696c0,0.938,0.763,1.699,1.697,1.699L-338.29-497.737
						L-338.29-497.737z"/>
				</g>
			</g>
		</g>
		<path fill="#FFFFFF" d="M369.625,281.055h-8.138c-0.75,0-1.355,0.68-1.355,1.522v2.704h-7.931h-5.648h-8.729v-2.704
			c0-0.846-0.607-1.522-1.357-1.522h-8.137c-0.752,0-1.357,0.68-1.357,1.522v8.928c0,0.84,0.605,1.519,1.357,1.519h8.137
			c0.75,0,1.357-0.678,1.357-1.519v-2.997c1.655-0.013,3.31,0.104,4.104,0.553c1.832,1.027,3.473,1.916,4.705,2.574
			c0.562,0.6,1.312,1.008,2.162,1.139c0.071,0.039,0.115,0.062,0.115,0.062h0.932c0,0,0.043-0.021,0.113-0.061
			c0.853-0.131,1.604-0.541,2.17-1.143c1.231-0.658,2.869-1.545,4.699-2.572c0.666-0.375,1.938-0.518,3.308-0.547v2.991
			c0,0.841,0.605,1.519,1.355,1.519h8.138c0.747,0,1.354-0.678,1.354-1.519v-8.928C370.981,281.734,370.372,281.055,369.625,281.055
			z"/>
		<path fill="#FFFFFF" d="M369.625,222.643h-8.138c-0.75,0-1.355,0.679-1.355,1.522v2.705h-7.931v-4.821
			c0-1.264-1.021-2.288-2.283-2.288h-1.076c-1.266,0-2.289,1.024-2.289,2.288v4.821h-8.729v-2.705c0-0.846-0.607-1.522-1.357-1.522
			h-8.137c-0.752,0-1.357,0.679-1.357,1.522v8.928c0,0.84,0.605,1.519,1.357,1.519h8.137c0.75,0,1.357-0.679,1.357-1.519v-2.998
			c1.655-0.012,3.31,0.105,4.104,0.552c1.832,1.029,3.473,1.917,4.705,2.576c0.562,0.598,1.312,1.006,2.162,1.139
			c0.071,0.038,0.115,0.061,0.115,0.061h0.932c0,0,0.043-0.022,0.113-0.06c0.853-0.131,1.604-0.541,2.17-1.142
			c1.231-0.658,2.869-1.545,4.699-2.573c0.666-0.375,1.938-0.517,3.308-0.546v2.992c0,0.84,0.605,1.52,1.355,1.52h8.138
			c0.747,0,1.354-0.679,1.354-1.52v-8.928C370.981,223.323,370.372,222.643,369.625,222.643z M349.377,232.848
			c-1.221,0-2.201-0.985-2.201-2.201c0-1.217,0.98-2.202,2.201-2.202c1.215,0,2.199,0.985,2.199,2.202
			C351.576,231.863,350.592,232.849,349.377,232.848z"/>
		<path fill="#FFFFFF" d="M364.942,224.046c-1.75-11.337-13.99-16.367-15.562-16.367h-0.001c-0.001,0-0.001,0-0.001,0h-0.001
			c-1.588,0.006-13.812,5.037-15.56,16.367c-0.913,5.913-0.862,13.036-0.812,19.924c0.011,1.562,0.021,3.117,0.021,4.671
			c0.032,2.233,0.125,5.673,0.524,9.716c0.222,2.233,0.422,4.643,0.629,7.102c0.663,7.883,1.347,16.031,2.81,21.162
			c0.746,2.617,2.569,7.787,3.778,11.211c0.462,1.312,0.835,2.371,1.022,2.933c0.534,1.605,2.03,2.687,3.774,2.687h7.664
			c1.693,0,3.188-1.079,3.725-2.683c0.188-0.562,0.562-1.613,1.021-2.918c1.209-3.427,3.039-8.605,3.785-11.229
			c1.462-5.133,2.146-13.291,2.812-21.184c0.205-2.453,0.405-4.854,0.627-7.081c0.301-3.062,0.474-6.241,0.524-9.733
			c0-1.552,0.012-3.122,0.021-4.695C365.799,237.053,365.85,229.946,364.942,224.046z M363.386,243.91
			c-0.009,1.58-0.021,3.155-0.021,4.694c-0.054,3.409-0.222,6.524-0.517,9.521c-0.221,2.237-0.422,4.649-0.629,7.115
			c-0.657,7.776-1.331,15.819-2.729,20.731c-0.729,2.553-2.543,7.689-3.742,11.09c-0.467,1.319-0.844,2.385-1.031,2.955
			c-0.212,0.637-0.808,1.065-1.479,1.065h-0.054h-2.625v-68.584c-0.342,0.219-0.746,0.35-1.183,0.349
			c-0.436,0-0.839-0.13-1.18-0.347v68.583h-2.678c-0.673,0-1.271-0.428-1.483-1.07c-0.189-0.568-0.566-1.641-1.037-2.969
			c-1.195-3.396-3.007-8.523-3.73-11.072c-1.4-4.908-2.074-12.945-2.729-20.713c-0.207-2.472-0.408-4.89-0.633-7.135
			c-0.392-3.956-0.479-7.327-0.513-9.502c-0.002-1.542-0.013-3.104-0.022-4.669c-0.051-6.797-0.103-13.822,0.779-19.547
			c1.272-8.238,8.924-12.628,12.047-13.938v18.322c0.341-0.218,0.744-0.348,1.18-0.348c0.437,0,0.841,0.131,1.183,0.351v-18.327
			c3.121,1.309,10.774,5.695,12.05,13.938C363.486,230.12,363.435,237.131,363.386,243.91z"/>
	</g>
	<path fill="#FFFFFF" d="M290.619,355.786c-0.03,0-0.062-0.001-0.095-0.003c-18.238-1.129-28.95-4.657-30.979-10.206
		c-0.797-2.183-0.159-4.479,1.75-6.302c1.591-1.519,3.787-2.444,5.909-2.625c-1.305-1.648-2.763-2.584-4.412-2.837
		c-5.63-0.869-13.617,6.41-19.13,11.958c-11.296,11.367-22.912,9.08-23.401,8.979c-0.811-0.171-1.33-0.966-1.159-1.776
		c0.171-0.81,0.96-1.329,1.771-1.16l0,0c0.427,0.087,10.564,2.004,20.661-8.155c9.757-9.818,16.245-13.644,21.714-12.81
		c3.336,0.513,6.107,2.863,8.238,6.987l1.896,3.666l-3.807-1.594c-1.762-0.739-4.549-0.049-6.209,1.537
		c-0.724,0.69-1.484,1.788-1.005,3.103c0.568,1.557,4.295,6.753,28.347,8.241c0.827,0.051,1.455,0.763,1.403,1.59
		C292.066,355.174,291.405,355.786,290.619,355.786z"/>
</g>
</svg>
