<?xml version="1.0" encoding="utf-8"?>
<!-- Generator: Adobe Illustrator 16.0.0, SVG Export Plug-In . SVG Version: 6.00 Build 0)  -->
<!DOCTYPE svg PUBLIC "-//W3C//DTD SVG 1.1//EN" "http://www.w3.org/Graphics/SVG/1.1/DTD/svg11.dtd">
<svg version="1.1" id="Layer_1" xmlns="http://www.w3.org/2000/svg" xmlns:xlink="http://www.w3.org/1999/xlink" x="0px" y="0px"
	 width="506.85px" height="521.918px" viewBox="0 0 506.85 521.918" enable-background="new 0 0 506.85 521.918"
	 xml:space="preserve">
<g>
	<g>
		<path fill="#FFFFFF" d="M2579.644,1470.503c-1.424,0-3.62,0.059-6.399,0.133c-4.797,0.128-11.363,0.304-18.657,0.304
			c-39.274,0-52.091-5.274-55.927-9.7c-7.399-8.539,1.236-21.051,6.396-28.525c2.89-4.188,4.209-6.098,3.244-7.935
			c-0.221-0.419-0.9-1.395-2.473-1.395c-0.387,0-0.812,0.06-1.299,0.182c-24.466,6.116-42.667,20.222-51.249,39.713
			c-4.246,9.643-11.282,14.459-17.104,16.553c-0.663-8.091-2.989-36.687-3.314-43.46c-0.562-11.691-2.711-15.469-2.952-15.859
			l-0.702-1.133l-1.326,0.134c-0.134,0.014-3.32,0.347-6.539,1.783c-2.146,0.958-3.822,2.183-5.014,3.634
			c-1.191-1.451-2.867-2.677-5.015-3.634c-3.219-1.438-6.404-1.771-6.539-1.783l-1.325-0.134l-0.702,1.133
			c-0.242,0.393-2.389,4.169-2.953,15.858c-0.054,1.122-0.128,3.123-0.215,5.483l-0.072,1.934
			c-0.098,2.615-0.749,12.721-1.375,22.095c-6.49,1.438-17.714,13.52-19.975,16.015l-0.553,0.609v65.303v4.268v69.396h204.172
			v-69.396v-4.268v-77.306L2579.644,1470.503L2579.644,1470.503z M2403.773,1443.946l0.071-1.934
			c0.087-2.341,0.16-4.323,0.214-5.437c0.337-6.979,1.255-10.793,1.829-12.56c2.77,0.578,8.309,2.313,8.309,6.938v1.8v11.983v6.299
			c0,1.179,0.955,2.134,2.134,2.134s2.134-0.954,2.134-2.134v-6.299v-11.983v-1.8c0-4.595,5.536-6.345,8.307-6.933
			c0.582,1.786,1.495,5.597,1.83,12.555c0.346,7.169,2.813,37.394,3.387,44.365c-1.004,0.169-1.918,0.249-2.7,0.254
			c-3.332,0-7.121-2.091-10.822-4.644v-7.122c0-1.179-0.955-2.134-2.134-2.134c-1.18,0-2.135,0.954-2.135,2.134v4.015
			c-0.157-0.118-0.316-0.237-0.474-0.354c-3.974-2.988-7.772-5.837-11.332-6.91
			C2403.02,1456.753,2403.676,1446.581,2403.773,1443.946z M2402.094,1470.577c2.66,1.09,5.895,3.539,9.062,5.924
			c1.007,0.757,2.021,1.518,3.039,2.259v48.473c-12.22-19.536-12.975-41.954-13.012-43.531
			C2401.277,1482.503,2401.654,1477.078,2402.094,1470.577z M2454.08,1606.181h-3.221h-4.349h-3.22l-7.117-27.281v27.281h-7.568
			v-14.348c-0.188-0.64-0.48-1.187-0.876-1.638c-0.396-0.452-0.951-0.754-1.666-0.903c0.149-0.264,0.339-0.488,0.565-0.679
			c0.188-0.188,0.44-0.348,0.762-0.479c0.32-0.131,0.725-0.197,1.215-0.197v-24.965h3.389h4.18h3.391l6.947,26.604v-26.604h7.567
			L2454.08,1606.181L2454.08,1606.181z M2488.026,1569.976v0.563v28.298c0,1.018-0.198,1.978-0.593,2.881
			c-0.396,0.903-0.934,1.694-1.61,2.373c-0.677,0.678-1.469,1.215-2.372,1.608c-0.903,0.396-1.864,0.595-2.881,0.595h-0.112h-10.055
			h-0.112h-0.509c-0.979-0.076-1.894-0.32-2.739-0.734c-0.848-0.414-1.582-0.951-2.203-1.61c-0.621-0.657-1.11-1.431-1.469-2.314
			c-0.358-0.886-0.536-1.816-0.536-2.796v-6.893c-0.226-0.639-0.527-1.186-0.904-1.638c-0.375-0.452-0.923-0.753-1.638-0.903
			c0.15-0.264,0.339-0.488,0.565-0.678c0.188-0.188,0.44-0.348,0.762-0.479c0.32-0.132,0.725-0.197,1.215-0.197v-17.51v-7.456h6.947
			h0.621v19.543v10.845v2.146c0,0.867,0.301,1.603,0.904,2.203c0.602,0.604,1.336,0.903,2.201,0.903h4.52
			c0.679,0,1.252-0.235,1.725-0.706c0.47-0.471,0.705-1.025,0.705-1.666v-13.727v-19.543h7.568V1569.976L2488.026,1569.976z
			 M2522.48,1574.777h-7.568v-1.074c0-0.864-0.319-1.608-0.96-2.229s-1.394-0.912-2.26-0.875h-3.671
			c-0.867-0.037-1.62,0.254-2.26,0.875c-0.642,0.621-0.96,1.365-0.96,2.229v21.859c0,0.867,0.311,1.602,0.932,2.203
			c0.621,0.603,1.364,0.904,2.23,0.904h4.52c0.678,0,1.251-0.235,1.723-0.707c0.471-0.472,0.706-1.025,0.706-1.666v-1.751h7.568
			v4.235c0,1.018-0.199,1.979-0.598,2.88c-0.398,0.904-0.938,1.695-1.622,2.373c-0.684,0.679-1.479,1.216-2.392,1.609
			c-0.909,0.396-1.878,0.594-2.9,0.594h-0.058h-10.109h-0.057h-0.564c-0.98-0.075-1.884-0.319-2.712-0.733s-1.562-0.951-2.202-1.609
			c-0.642-0.659-1.14-1.432-1.497-2.316s-0.537-1.815-0.537-2.796v-6.607c-0.188-0.642-0.471-1.195-0.847-1.666
			c-0.377-0.472-0.941-0.764-1.694-0.876c0.149-0.264,0.339-0.489,0.564-0.679c0.188-0.188,0.441-0.348,0.763-0.479
			c0.319-0.132,0.725-0.198,1.214-0.198v-17.792c0-0.979,0.179-1.911,0.537-2.796c0.357-0.884,0.855-1.657,1.497-2.314
			c0.641-0.659,1.374-1.195,2.202-1.61c0.828-0.414,1.731-0.658,2.712-0.734h10.73h0.058c1.022,0,1.991,0.198,2.901,0.593
			c0.911,0.396,1.707,0.933,2.391,1.61s1.224,1.468,1.622,2.372c0.397,0.904,0.598,1.863,0.598,2.881V1574.777z M2549.027,1606.294
			l-1.582-9.207h-9.602l-1.64,9.207h-7.625l2.543-14.518l-0.058,0.057c-0.226-0.64-0.526-1.194-0.903-1.666
			c-0.377-0.471-0.941-0.78-1.693-0.933c0.148-0.263,0.339-0.488,0.563-0.678c0.188-0.188,0.452-0.349,0.791-0.48
			c0.339-0.131,0.753-0.196,1.242-0.196c0.113,0,0.233,0.01,0.367,0.027c0.132,0.021,0.233,0.028,0.311,0.028l4.406-25.306h2.033
			h3.274h2.316h3.389h1.921l7.625,43.662h-7.68V1606.294z M2577.51,1547.809h-195.637v-63.651
			c4.77-5.174,12.002-11.928,15.951-13.71c-0.447,6.622-0.829,12.091-0.904,13.016l-0.008,0.097l0.001,0.098
			c0.011,1.188,0.475,29.363,17.714,51.674c0.42,0.545,1.053,0.829,1.69,0.829c0.455,0,0.914-0.145,1.303-0.444
			c0.423-0.326,0.679-0.779,0.777-1.265c0.009-0.038,0.019-0.075,0.024-0.113c0.007-0.037,0.009-0.073,0.013-0.11
			c0.012-0.091,0.026-0.181,0.026-0.274v-52.288c3.559,2.207,7.188,3.801,10.896,3.801c12.963-0.077,23.513-10.662,27.829-20.463
			c7.717-17.527,23.856-30.435,45.622-36.562c-0.412,0.613-0.855,1.256-1.265,1.849c-5.479,7.938-15.677,22.709-6.109,33.746
			c6.517,7.52,25.863,11.174,59.15,11.174c7.351,0,13.952-0.177,18.771-0.306c1.594-0.043,2.991-0.08,4.152-0.104v73.008H2577.51z"
			/>
		<polygon fill="#FFFFFF" points="2542.475,1570.257 2539.143,1589.519 2546.146,1589.519 2542.814,1570.257 		"/>
		
			<text transform="matrix(1 0 0 1 2423.3157 1537.053)" fill="#FFFFFF" font-family="'MelmaBlack'" font-size="56.483" letter-spacing="1">Meia</text>
	</g>
</g>
<g>
	<g>
		<path fill="#FFFFFF" d="M253.426,31.656c-126.642,0-229.306,102.663-229.306,229.304c0,126.639,102.664,229.303,229.306,229.303
			c126.641,0,229.303-102.664,229.303-229.303C482.729,134.319,380.067,31.656,253.426,31.656z M253.426,414.436
			c-84.764,0-153.479-68.715-153.479-153.477c0-84.763,68.716-153.479,153.479-153.479c84.762,0,153.477,68.717,153.477,153.479
			C406.903,345.721,338.188,414.436,253.426,414.436z"/>
	</g>
	<g>
		<g>
			<g>
				<path fill="#FFFFFF" d="M161.381,302.747l-0.467-0.007l-4.009-3.016l-4.005,3.016l-0.467,0.007
					c-1.882,0-3.542-1.197-4.134-2.982c-0.673-2.006-1.39-4.373-2.131-7.043l-0.57,0.006l-1.834-9.438
					c-2.887-12.484-4.618-24.287-4.738-32.344c0-25.581,14.466-41.23,17.421-42.475l0.458-0.192l0.459,0.192
					c2.955,1.243,17.421,16.894,17.421,42.457c-0.12,8.06-1.853,19.865-4.748,32.402l-1.824,9.396l-0.569-0.006
					c-0.743,2.67-1.46,5.037-2.134,7.047C164.92,301.549,163.26,302.747,161.381,302.747z M147.887,290.059l0.303,1.107
					c0.822,3.01,1.615,5.649,2.354,7.85c0.237,0.723,0.856,1.234,1.589,1.346l4.774-3.596l4.776,3.596
					c0.731-0.11,1.349-0.623,1.587-1.342c0.738-2.203,1.53-4.844,2.354-7.854l0.304-1.107l0.38,0.094l1.42-7.312
					c2.869-12.424,4.578-24.045,4.695-31.929c0-23.832-12.565-37.631-15.519-39.951c-2.936,2.308-15.515,16.107-15.515,39.969
					c0.118,7.878,1.828,19.501,4.688,31.871l1.429,7.354L147.887,290.059z"/>
			</g>
		</g>
		<g>
			<g>
				<path fill="#FFFFFF" d="M156.906,299.426c-0.65,0-1.181-0.529-1.181-1.182V209.56c0-0.651,0.529-1.182,1.181-1.182
					c0.652,0,1.182,0.528,1.182,1.182v88.685C158.087,298.897,157.559,299.426,156.906,299.426z"/>
			</g>
		</g>
		<g>
			<g>
				<path fill="#FFFFFF" d="M151.809,295.102c-0.649,0-1.18-0.529-1.18-1.182v-9.832c0-0.652,0.529-1.181,1.18-1.181
					c0.653,0,1.184,0.527,1.184,1.181v9.832C152.992,294.573,152.462,295.102,151.809,295.102z"/>
			</g>
		</g>
		<g>
			<g>
				<path fill="#FFFFFF" d="M161.472,295.102c-0.651,0-1.181-0.529-1.181-1.182v-9.832c0-0.652,0.528-1.181,1.181-1.181
					c0.653,0,1.183,0.527,1.183,1.181v9.832C162.655,294.573,162.125,295.102,161.472,295.102z"/>
			</g>
		</g>
		<g>
			<g>
				<path fill="#FFFFFF" d="M161.511,346.829c-0.314,0-0.629-0.125-0.861-0.373c-0.445-0.476-0.423-1.224,0.054-1.668
					c0.72-0.675,72.103-67.646,95.026-90.598c29.179-29.217,85.174-90.521,85.488-99.045c0.022-0.649,0.553-1.163,1.225-1.135
					c0.65,0.023,1.16,0.571,1.137,1.223c-0.411,11.16-68.046,82.472-86.178,100.626c-22.949,22.981-94.362,89.978-95.083,90.651
					C162.091,346.723,161.801,346.829,161.511,346.829z"/>
			</g>
		</g>
		<g>
			<g>
				<path fill="#FFFFFF" d="M171.51,337.672c11.619-2.601,10.743,10.742,10.743,10.742l0.646-0.646
					c6.047-6.045,8.802-21.563,4.719-28.223"/>
			</g>
		</g>
		<g>
			<g>
				<path fill="#FFFFFF" d="M342.397,346.829c-0.289,0-0.58-0.105-0.809-0.318c-0.718-0.674-72.129-67.67-95.077-90.651
					c-18.132-18.153-85.766-89.465-86.182-100.626c-0.023-0.65,0.484-1.197,1.137-1.223c0.658-0.035,1.201,0.484,1.225,1.135
					c0.316,8.522,56.315,69.828,85.492,99.045c22.92,22.953,94.303,89.923,95.021,90.598c0.478,0.444,0.5,1.192,0.054,1.668
					C343.026,346.704,342.712,346.829,342.397,346.829z"/>
			</g>
		</g>
		<g>
			<g>
				<path fill="#FFFFFF" d="M332.399,337.672c-11.615-2.601-10.744,10.742-10.744,10.742l-0.645-0.646
					c-6.045-6.045-8.797-21.563-4.713-28.223"/>
			</g>
		</g>
		<g transform="translate(607.000000, 663.000000)">
			<g>
				<g>
					<path fill="#FFFFFF" d="M-345.933-475.661c0,2.812-2.28,5.095-5.088,5.095h-9.354c-2.809,0-5.088-2.281-5.088-5.095v-10.19
						c0-0.936-0.763-1.699-1.696-1.699c-0.938,0-1.697,0.765-1.697,1.699v10.19c0,4.687,3.796,8.49,8.481,8.49h9.354
						c4.68,0,8.486-3.803,8.486-8.49v-27.171c0-0.938-0.762-1.698-1.701-1.698c-0.938,0-1.697,0.761-1.697,1.698V-475.661
						L-345.933-475.661z"/>
				</g>
			</g>
			<g>
				<g>
					<path fill="#FFFFFF" d="M-353.574-475.661c0,0.938,0.76,1.698,1.696,1.698c0.938,0,1.698-0.76,1.698-1.698v-16.98
						c0-0.938-0.76-1.7-1.698-1.7c-0.937,0-1.696,0.763-1.696,1.7V-475.661z"/>
				</g>
			</g>
			<g>
				<g>
					<path fill="#FFFFFF" d="M-361.219-475.661c0,0.938,0.765,1.698,1.7,1.698c0.939,0,1.699-0.76,1.699-1.698v-7.646
						c0-0.934-0.76-1.695-1.699-1.695c-0.937,0-1.7,0.763-1.7,1.695V-475.661z"/>
				</g>
			</g>
			<g>
				<g>
					<path fill="#FFFFFF" d="M-368.856-501.133c0-1.877,1.519-3.397,3.395-3.397c0.411,0,0.808,0.069,1.184,0.21
						c1.004,0.374,2.099-0.267,2.269-1.322c0.361-2.254,2.485-3.983,5.04-3.983c2.128,0,3.991,1.205,4.743,2.971
						c0.408,0.948,1.556,1.32,2.439,0.789c0.393-0.236,0.84-0.363,1.309-0.363c1.408,0,2.547,1.144,2.547,2.549
						c0,1.406-1.139,2.55-2.547,2.55c-0.758,0-1.457-0.332-1.938-0.896c-0.672-0.788-1.89-0.795-2.57-0.014
						c-0.961,1.103-2.407,1.758-3.98,1.758c-1.004,0-1.956-0.264-2.771-0.749c-0.939-0.562-2.154-0.102-2.488,0.938
						c-0.256,0.804-0.805,1.48-1.532,1.906c-0.527,0.301-0.851,0.861-0.851,1.469v6.629c0,0.935-0.761,1.695-1.7,1.695
						c-0.937,0-1.7-0.762-1.7-1.695v-8.226c0-0.335-0.095-0.661-0.278-0.939C-368.66-499.811-368.856-500.453-368.856-501.133z
						 M-371.408-490.094c0,2.812,2.282,5.092,5.095,5.092c2.811,0,5.094-2.279,5.094-5.092l0.006-5.739
						c1.033-0.829,1.377-1.529,1.377-1.529c0.907,0.312,1.873,0.474,2.866,0.474c1.675,0,3.272-0.464,4.63-1.301
						c0.709-0.44,0.674-0.475,0.674-0.475c0.936,0.596,2.035,0.927,3.188,0.927c3.281,0,5.945-2.662,5.945-5.944
						c0-3.28-2.664-5.944-5.945-5.944c-1.092,0-1.418,0.204-1.418,0.204c-1.547-2.211-4.181-3.603-7.073-3.603
						c-3.17,0-5.981,1.664-7.439,4.175c-0.469,0.812-0.4,0.953-0.4,0.953s-0.435-0.031-0.65-0.031c-3.751,0-6.793,3.04-6.793,6.796
						c0,1.174,0.302,2.312,0.86,3.314L-371.408-490.094z"/>
				</g>
			</g>
			<g>
				<g>
					<path fill="#FFFFFF" d="M-338.29-497.737c0.934,0,1.694,0.764,1.694,1.697v13.16c0,1.64-1.332,2.972-2.969,2.972h-4.672
						c-0.938,0-1.697,0.761-1.697,1.699s0.761,1.696,1.697,1.696h4.672c3.515,0,6.367-2.853,6.367-6.367v-13.16
						c0-2.811-2.283-5.094-5.094-5.094h-5.945c-0.938,0-1.697,0.759-1.697,1.696s0.761,1.699,1.697,1.699L-338.29-497.737
						L-338.29-497.737z"/>
				</g>
			</g>
		</g>
		<path fill="#FFFFFF" d="M364.942,224.046c-1.75-11.337-13.99-16.367-15.562-16.367h-0.001c-0.001,0-0.001,0-0.001,0h-0.001
			c-1.587,0.006-13.812,5.037-15.559,16.367c-0.913,5.913-0.862,13.036-0.811,19.924c0.011,1.561,0.022,3.117,0.022,4.671
			c0.033,2.233,0.125,5.673,0.525,9.716c0.221,2.233,0.422,4.642,0.629,7.101c0.663,7.883,1.346,16.032,2.809,21.162
			c0.746,2.618,2.57,7.788,3.779,11.211c0.461,1.312,0.835,2.371,1.023,2.932c0.534,1.606,2.03,2.686,3.774,2.686h7.664
			c1.694,0,3.19-1.079,3.725-2.682c0.188-0.561,0.561-1.613,1.02-2.918c1.209-3.426,3.039-8.606,3.785-11.229
			c1.462-5.132,2.147-13.291,2.812-21.183c0.205-2.453,0.406-4.853,0.627-7.08c0.301-3.062,0.473-6.241,0.525-9.734
			c0-1.551,0.011-3.122,0.021-4.695C365.799,237.053,365.85,229.946,364.942,224.046z M345.52,301.084
			c-0.673,0-1.271-0.427-1.484-1.07c-0.19-0.569-0.567-1.641-1.037-2.969c-1.196-3.395-3.007-8.523-3.731-11.072
			c-1.401-4.908-2.075-12.945-2.729-20.713c-0.207-2.472-0.409-4.89-0.633-7.135c-0.391-3.956-0.479-7.327-0.512-9.502
			c-0.002-1.542-0.013-3.104-0.023-4.669c-0.051-6.796-0.102-13.822,0.779-19.546c1.273-8.239,8.924-12.628,12.047-13.938v90.614
			H345.52z M363.386,243.91c-0.009,1.581-0.021,3.156-0.021,4.695c-0.053,3.409-0.221,6.524-0.516,9.52
			c-0.221,2.238-0.422,4.65-0.629,7.116c-0.657,7.776-1.331,15.819-2.729,20.731c-0.728,2.553-2.543,7.69-3.742,11.09
			c-0.467,1.32-0.844,2.385-1.032,2.955c-0.212,0.638-0.807,1.066-1.48,1.066h-0.053h-2.625v-90.615
			c3.121,1.309,10.775,5.695,12.049,13.939C363.486,230.12,363.435,237.131,363.386,243.91z"/>
		<path fill="#FFFFFF" d="M369.625,281.055h-8.137c-0.75,0-1.356,0.679-1.356,1.522v2.705h-7.93h-5.649h-8.729v-2.705
			c0-0.845-0.608-1.522-1.358-1.522h-8.136c-0.752,0-1.358,0.679-1.358,1.522v8.928c0,0.84,0.606,1.519,1.358,1.519h8.136
			c0.75,0,1.358-0.679,1.358-1.519v-2.997c1.655-0.013,3.309,0.104,4.104,0.552c1.832,1.028,3.472,1.917,4.705,2.575
			c0.562,0.599,1.313,1.007,2.162,1.139c0.072,0.038,0.116,0.061,0.116,0.061h0.931c0,0,0.043-0.021,0.114-0.059
			c0.852-0.132,1.605-0.541,2.169-1.143c1.232-0.658,2.87-1.545,4.7-2.573c0.666-0.375,1.938-0.517,3.307-0.546v2.991
			c0,0.84,0.606,1.519,1.356,1.519h8.137c0.748,0,1.355-0.679,1.355-1.519v-8.928C370.981,281.735,370.373,281.055,369.625,281.055z
			"/>
		<g>
			<g>
				<path fill="#FFFFFF" d="M351.577,230.647c0-1.217-0.985-2.202-2.2-2.202c-1.22,0-2.201,0.985-2.201,2.202
					c0,1.216,0.981,2.201,2.201,2.201C350.592,232.849,351.577,231.863,351.577,230.647z"/>
			</g>
		</g>
		<path fill="#FFFFFF" d="M369.625,222.643h-8.137c-0.75,0-1.356,0.679-1.356,1.522v2.705h-7.93v-4.821
			c0-1.264-1.022-2.288-2.284-2.288h-1.076c-1.265,0-2.289,1.024-2.289,2.288v4.821h-8.729v-2.705c0-0.845-0.608-1.522-1.358-1.522
			h-8.136c-0.752,0-1.358,0.679-1.358,1.522v8.928c0,0.84,0.606,1.519,1.358,1.519h8.136c0.75,0,1.358-0.679,1.358-1.519v-2.998
			c1.655-0.012,3.309,0.105,4.104,0.552c1.832,1.029,3.472,1.917,4.705,2.576c0.562,0.598,1.313,1.006,2.162,1.139
			c0.072,0.038,0.116,0.06,0.116,0.06h0.931c0,0,0.043-0.022,0.114-0.059c0.852-0.131,1.605-0.541,2.169-1.142
			c1.232-0.658,2.87-1.545,4.7-2.573c0.666-0.375,1.938-0.517,3.307-0.546v2.992c0,0.84,0.606,1.519,1.356,1.519h8.137
			c0.748,0,1.355-0.679,1.355-1.519v-8.928C370.981,223.323,370.373,222.643,369.625,222.643z"/>
		<g>
			<g>
				<path fill="#FFFFFF" d="M231.424,360.502c-0.187,0-0.374-0.043-0.549-0.138c-0.576-0.303-0.799-1.018-0.494-1.596
					c6.703-12.707,16.644-17.227,21.972-18.789c6.085-1.783,12.421-1.576,16.143,0.529l1.42,0.805l-1.205,1.099
					c-3.988,3.633-9.873,10.551-8.67,13.653c0.664,1.715,3.731,2.074,6.188,2.074h9.197c0.65,0,1.18,0.529,1.18,1.182
					c0,0.653-0.528,1.181-1.18,1.181h-9.197c-4.649,0-7.473-1.205-8.395-3.584c-1.799-4.65,4.946-12.015,7.981-15.017
					c-2.768-0.938-7.278-1.272-12.798,0.345c-4.971,1.459-14.251,5.686-20.549,17.627
					C232.26,360.274,231.849,360.502,231.424,360.502z"/>
			</g>
		</g>
	</g>
	<g>
		<path d="M74.849,327.946c-3.333,1.326-5.271,5.202-3.807,8.525c0.65,1.637,1.957,2.774,3.558,3.464
			c0.343,0.147,0.526,0.549,0.377,0.894c-0.146,0.342-0.557,0.505-0.898,0.356c-1.997-0.792-3.531-2.267-4.319-4.25
			c-1.612-4.047,0.497-8.629,4.586-10.258c4.089-1.627,8.854,0.409,10.408,4.312c0.569,1.434,0.607,3.312-0.036,4.255l0.891-0.379
			c0.409-0.161,0.695,0.08,0.817,0.388c0.122,0.305,0.088,0.696-0.321,0.86l-2.983,1.188c-0.327,0.131-0.74,0.105-0.902-0.303
			c-0.123-0.308-0.003-0.663,0.323-0.792l0.164-0.065c1.036-0.436,1.806-2.068,0.78-4.645
			C82.184,328.224,78.242,326.595,74.849,327.946z"/>
		<path d="M83.026,345.38l4.144,8.009l5.312-2.748l-0.181-0.352c-0.404-0.782,0.827-1.418,1.231-0.638l1,1.935
			c0.413,0.8-0.816,1.437-1.231,0.637l-0.181-0.353l-11.858,6.133l0.181,0.353c0.414,0.803-0.815,1.438-1.229,0.637l-1-1.935
			c-0.404-0.781,0.827-1.418,1.23-0.637l0.183,0.353l5.312-2.748l-4.143-8.01l-5.313,2.749l0.183,0.35
			c0.414,0.803-0.816,1.438-1.23,0.64l-1.001-1.938c-0.404-0.778,0.827-1.418,1.231-0.636l0.182,0.353l11.858-6.134l-0.183-0.352
			c-0.403-0.781,0.827-1.418,1.231-0.637l1,1.934c0.415,0.803-0.816,1.438-1.23,0.637l-0.181-0.35L83.026,345.38z"/>
		<path d="M93.6,370.191l7.799-5.046l-0.096-0.146c-0.49-0.76,0.674-1.513,1.164-0.753l0.946,1.459
			c0.478,0.737-0.688,1.491-1.165,0.753l-0.097-0.147l-7.779,5.034c-2.569,1.661-6.014,0.798-7.615-1.68
			c-1.603-2.478-0.98-5.973,1.588-7.636l7.781-5.033l-0.097-0.147c-0.478-0.738,0.688-1.491,1.165-0.753l0.944,1.459
			c0.491,0.76-0.673,1.513-1.165,0.753l-0.095-0.146l-7.798,5.047c-1.922,1.244-2.386,3.851-1.179,5.717
			C89.11,370.789,91.678,371.435,93.6,370.191z"/>
		<path d="M96.284,380.878c0.557,0.71-0.534,1.564-1.092,0.854l-1.343-1.715c-0.543-0.69,0.547-1.547,1.091-0.854l0.245,0.312
			l10.508-8.238l-0.176-0.226c-0.557-0.71,0.534-1.562,1.09-0.854l3.447,4.397c1.602,2.042,1.141,4.947-0.789,6.515
			c-1.6,1.312-3.844,1.337-5.562,0.143c-0.06-0.039-0.086-0.071-0.145-0.11l-2.308,6.114l0.421,0.536
			c0.557,0.71-0.534,1.564-1.09,0.854l-0.681-0.865c-0.081-0.104-0.333-0.354-0.103-0.953l2.715-6.771l-2.199-2.806l-4.276,3.354
			L96.284,380.878z M101.407,376.359l2.417,3.081c1.126,1.438,3.19,1.72,4.601,0.56c1.358-1.121,1.667-3.151,0.54-4.59l-2.416-3.081
			L101.407,376.359z"/>
		<path d="M107.468,394.315c0.618,0.656-0.392,1.605-1.01,0.949l-1.493-1.588c-0.604-0.641,0.407-1.592,1.01-0.95l0.272,0.289
			l9.731-9.151l-0.194-0.208c-0.618-0.656,0.392-1.605,1.01-0.949l3.83,4.071c1.777,1.894,1.579,4.829-0.203,6.564
			c-1.479,1.449-3.711,1.676-5.531,0.641c-0.061-0.035-0.092-0.064-0.152-0.099l-1.751,6.299l0.468,0.497
			c0.617,0.657-0.394,1.605-1.012,0.949l-0.753-0.803c-0.091-0.096-0.363-0.322-0.188-0.938l2.1-6.989l-2.441-2.598l-3.96,3.725
			L107.468,394.315z M112.167,389.352l2.684,2.854c1.251,1.33,3.334,1.427,4.635,0.142c1.253-1.238,1.378-3.288,0.127-4.618
			l-2.683-2.854L112.167,389.352z"/>
		<path d="M121.681,404.296l-2.901,1.486l0.082,0.071c0.66,0.583-0.259,1.623-0.918,1.04l-1.401-1.24
			c-0.659-0.583,0.26-1.621,0.919-1.037l0.214,0.188l12.74-6.562c-0.442-0.598,0.406-1.491,1.032-0.938l1.303,1.151
			c0.626,0.555-0.141,1.521-0.804,1.141l-4.942,13.46l0.198,0.176c0.658,0.583-0.261,1.621-0.919,1.038l-1.385-1.224
			c-0.676-0.601,0.243-1.639,0.918-1.04l0.066,0.06l1.122-3.062L121.681,404.296z M123.013,403.622l4.516,3.994l2.874-7.8
			L123.013,403.622z"/>
		<path d="M138.722,408.632c-1.275,1.71,0.25,3.421,1.341,4.865c1.547,1.863,2.563,4.073,0.906,6.299
			c-1.563,2.102-4.709,2.089-6.686,0.617c-1.343-0.998-1.806-2.44-1.954-3.678l-0.679,0.95c-0.263,0.352-0.65,0.284-0.916,0.086
			c-0.264-0.196-0.423-0.534-0.161-0.889l2.265-3.114c0,0,0.425-0.534,0.919-0.166c0.317,0.235,0.429,0.564,0.183,0.932
			l-0.052,0.071c-1.204,1.653-0.551,3.43,1.033,4.582c1.43,1.063,3.741,1.387,4.938-0.219c1.195-1.606,0.314-3.334-0.81-4.664
			c-2.129-2.518-2.797-4.605-1.404-6.478c1.458-1.96,4.276-1.837,6.059-0.509c1.059,0.787,1.823,2.044,1.803,3.29l0.547-0.772
			c0.263-0.354,0.632-0.298,0.897-0.102c0.265,0.199,0.441,0.549,0.179,0.902l-1.918,2.576c-0.211,0.282-0.575,0.478-0.928,0.215
			c-0.266-0.196-0.351-0.562-0.14-0.845c1.117-1.5,0.307-3.175-1.176-4.276C141.714,407.374,139.76,407.237,138.722,408.632z"/>
		<path d="M176.672,431.259c-0.826,1.969,1.064,3.262,2.473,4.4c1.949,1.438,3.466,3.338,2.396,5.895
			c-1.014,2.415-4.068,3.159-6.34,2.208c-1.542-0.646-2.339-1.935-2.781-3.099l-0.431,1.084c-0.17,0.405-0.562,0.433-0.867,0.304
			c-0.305-0.127-0.54-0.417-0.371-0.822l1.447-3.565c0,0,0.285-0.62,0.854-0.384c0.365,0.153,0.552,0.446,0.402,0.861l-0.034,0.08
			c-0.771,1.895,0.291,3.462,2.104,4.198c1.644,0.688,3.964,0.443,4.737-1.401c0.774-1.846-0.496-3.309-1.906-4.33
			c-2.672-1.932-3.822-3.796-2.921-5.946c0.944-2.253,3.707-2.812,5.756-1.951c1.218,0.51,2.263,1.545,2.541,2.759l0.347-0.88
			c0.17-0.407,0.542-0.442,0.846-0.313c0.305,0.127,0.561,0.426,0.391,0.831l-1.241,2.963c-0.136,0.323-0.442,0.601-0.849,0.43
			c-0.304-0.127-0.475-0.46-0.339-0.785c0.724-1.724-0.466-3.153-2.171-3.867C179.274,429.322,177.345,429.657,176.672,431.259z"/>
		<path d="M185.993,446.521l4.099-12.691l-0.168-0.053c-0.838-0.271-0.405-1.612,0.433-1.341l1.675,0.54
			c0.839,0.271,0.405,1.609-0.433,1.341l-0.167-0.056l-2.368,7.33l8.635-5.398c-0.442-0.419-0.033-1.396,0.72-1.153l1.653,0.533
			c0.86,0.276,0.428,1.617-0.433,1.341l-0.376-0.123l-5.604,3.466l-0.229,0.133l3.076,9.526l0.355,0.114
			c0.858,0.278,0.434,1.597-0.427,1.32l-1.654-0.534c-0.754-0.244-0.499-1.318,0.183-1.353l-2.729-8.305l-0.519,0.317l-3.258,2.001
			l-1.124,3.475l0.168,0.056c0.838,0.271,0.412,1.59-0.426,1.319l-1.677-0.542c-0.838-0.271-0.412-1.591,0.427-1.317
			L185.993,446.521z"/>
		<path d="M205.635,449.138l-1.816,2.707l0.107,0.023c0.859,0.19,0.561,1.543-0.299,1.354l-1.826-0.405
			c-0.86-0.189-0.562-1.543,0.298-1.353l0.279,0.062l7.953-11.922c-0.676-0.307-0.366-1.5,0.449-1.319l1.697,0.374
			c0.816,0.182,0.615,1.397-0.148,1.389l2.21,14.166l0.258,0.058c0.858,0.19,0.561,1.543-0.299,1.354l-1.806-0.399
			c-0.881-0.194-0.582-1.549,0.3-1.354l0.086,0.02l-0.504-3.221L205.635,449.138z M206.471,447.902l5.887,1.302l-1.271-8.214
			L206.471,447.902z"/>
		<path d="M223.146,456.934c-0.872-0.119-0.688-1.492,0.186-1.375l0.392,0.053l1.776-13.234l-4.383-0.59l-0.041,0.308
			c-0.117,0.872-1.491,0.688-1.374-0.187l0.132-0.979c0.052-0.394,0.354-0.663,0.77-0.607l11.558,1.551
			c0.436,0.061,0.606,0.437,0.561,0.785l-0.132,0.98c-0.117,0.874-1.491,0.688-1.374-0.185l0.041-0.306l-4.383-0.587l-1.775,13.235
			l0.393,0.053c0.894,0.119,0.71,1.494-0.186,1.373L223.146,456.934z"/>
		<path d="M238.208,449.702l6.484,0.308c0.878,0.043,0.812,1.448-0.066,1.407l-6.484-0.308l-0.282,5.957l7.627,0.36l0.016-0.308
			c0.041-0.88,1.426-0.813,1.384,0.065l-0.046,0.988c-0.019,0.352-0.254,0.692-0.694,0.673l-10.021-0.476
			c-0.901-0.043-0.836-1.427,0.064-1.386l0.286,0.015l0.63-13.342l-0.285-0.014c-0.9-0.043-0.836-1.429,0.065-1.386l10.023,0.475
			c0.461,0.021,0.663,0.405,0.625,0.755l-0.047,0.968c-0.041,0.881-1.426,0.814-1.384-0.064l0.015-0.308l-7.628-0.359
			L238.208,449.702z"/>
		<path d="M290.8,442.286c0.51,2.073,2.8,1.987,4.608,2.065c2.423-0.007,4.772,0.617,5.435,3.312
			c0.624,2.543-1.387,4.963-3.781,5.55c-1.625,0.398-3.03-0.161-4.08-0.834l0.302,1.127c0.104,0.428-0.196,0.684-0.519,0.762
			c-0.319,0.079-0.682-0.013-0.788-0.44l-0.96-3.729c0,0-0.141-0.669,0.456-0.814c0.388-0.094,0.711,0.029,0.837,0.452l0.021,0.084
			c0.51,1.983,2.296,2.611,4.192,2.122c1.731-0.424,3.45-2.001,2.974-3.947c-0.478-1.942-2.369-2.362-4.108-2.345
			c-3.301,0.039-5.335-0.775-5.892-3.043c-0.581-2.371,1.306-4.467,3.465-4.997c1.283-0.312,2.739-0.104,3.686,0.706l-0.246-0.914
			c-0.105-0.428,0.175-0.678,0.493-0.756c0.321-0.077,0.706,0.009,0.812,0.438l0.766,3.119c0.083,0.343,0.002,0.747-0.426,0.853
			c-0.321,0.08-0.657-0.088-0.741-0.431c-0.444-1.816-2.253-2.257-4.047-1.816C291.737,439.178,290.387,440.599,290.8,442.286z"/>
		<path d="M314.76,442.217l-2.963-8.8l-0.166,0.059c-0.855,0.286-1.299-1.025-0.442-1.314l1.647-0.554
			c0.833-0.281,1.274,1.033,0.441,1.313l-0.168,0.055l2.955,8.776c0.977,2.896-0.713,6.021-3.506,6.96
			c-2.793,0.94-6.026-0.524-7-3.422l-2.955-8.776l-0.168,0.056c-0.832,0.28-1.273-1.031-0.44-1.312l1.646-0.554
			c0.854-0.288,1.297,1.025,0.441,1.312l-0.168,0.058l2.964,8.797c0.729,2.167,3.139,3.261,5.243,2.553
			C314.229,446.71,315.488,444.384,314.76,442.217z"/>
		<path d="M325.793,442.24c0.823-0.363,1.386,0.904,0.559,1.27l-1.991,0.88c-0.806,0.355-1.366-0.912-0.561-1.27l0.361-0.158
			l-5.396-12.218l-0.263,0.115c-0.824,0.364-1.384-0.902-0.56-1.267l5.111-2.261c2.376-1.047,5.079,0.115,6.123,2.372
			c0.876,1.874,0.348,4.057-1.234,5.43c-0.053,0.047-0.092,0.062-0.143,0.109l5.355,3.742l0.624-0.272
			c0.825-0.364,1.384,0.901,0.56,1.269l-1.007,0.443c-0.12,0.054-0.424,0.234-0.947-0.136l-5.894-4.301l-3.26,1.44l2.195,4.97
			L325.793,442.24z M322.675,436.16l3.583-1.582c1.669-0.735,2.451-2.67,1.674-4.323c-0.751-1.593-2.646-2.393-4.313-1.653
			l-3.583,1.582L322.675,436.16z"/>
		<path d="M337.551,428.481l5.494-3.015c0.771-0.424,1.447,0.811,0.678,1.233l-5.494,3.015l2.879,5.244l0.153-0.084
			c0.79-0.434,1.457,0.779,0.667,1.214l-1.522,0.837c-0.792,0.435-1.459-0.781-0.667-1.215l0.153-0.084l-6.434-11.722l-0.253,0.138
			c-0.788,0.434-1.455-0.781-0.667-1.217l8.6-4.719c0.405-0.223,0.776-0.002,0.929,0.317l0.465,0.85
			c0.424,0.771-0.79,1.438-1.213,0.667l-0.148-0.271l-6.497,3.567L337.551,428.481z"/>
		<path d="M388.296,401.652c-0.618,0.627-1.604-0.348-0.984-0.974l0.278-0.282l-9.501-9.384l-3.108,3.146l0.222,0.218
			c0.624,0.618-0.348,1.604-0.975,0.983l-0.706-0.694c-0.28-0.278-0.314-0.683-0.021-0.979l8.193-8.295
			c0.311-0.312,0.715-0.224,0.964,0.024l0.704,0.694c0.626,0.618-0.348,1.604-0.974,0.986l-0.22-0.217l-3.105,3.146l9.498,9.382
			l0.278-0.28c0.635-0.643,1.62,0.331,0.985,0.975L388.296,401.652z"/>
		<path d="M397.576,389.587c0.573-0.695,1.643,0.188,1.066,0.884l-1.387,1.679c-0.562,0.678-1.629-0.207-1.068-0.885l0.254-0.305
			l-10.287-8.511l-0.182,0.222c-0.575,0.692-1.645-0.19-1.068-0.884l3.562-4.307c1.654-1.999,4.592-2.167,6.532-0.616
			c1.623,1.283,2.125,3.472,1.324,5.404c-0.023,0.065-0.053,0.1-0.078,0.164l6.463,0.951l0.437-0.525
			c0.575-0.693,1.641,0.188,1.066,0.885l-0.7,0.847c-0.084,0.103-0.274,0.4-0.908,0.305l-7.19-1.211l-2.271,2.746l4.185,3.462
			L397.576,389.587z M392.071,385.546l2.496-3.018c1.162-1.404,0.999-3.483-0.436-4.613c-1.387-1.086-3.435-0.955-4.599,0.449
			l-2.497,3.018L392.071,385.546z"/>
		<path d="M405.709,374.247l1.838,2.692l0.062-0.09c0.497-0.727,1.642,0.055,1.145,0.781l-1.055,1.543
			c-0.497,0.727-1.641-0.056-1.144-0.782l0.161-0.235l-8.098-11.815c-0.536,0.514-1.527-0.217-1.056-0.909l0.98-1.435
			c0.471-0.689,1.523-0.05,1.229,0.654l13.964,3.228l0.149-0.219c0.495-0.728,1.639,0.056,1.144,0.781l-1.042,1.526
			c-0.509,0.742-1.652-0.039-1.144-0.782l0.049-0.073l-3.176-0.729L405.709,374.247z M404.877,373.013l3.397-4.977l-8.093-1.88
			L404.877,373.013z"/>
		<path d="M423.261,352.877c0.385,0.213,0.366,0.604,0.206,0.895c-0.159,0.288-0.452,0.454-0.837,0.239l-0.646-0.331
			c0.262,1.477-0.116,2.928-0.706,4.035c-2.022,3.781-6.937,5.332-10.974,3.09c-4.04-2.243-5.288-7.062-3.121-10.966
			c0.749-1.347,2.104-2.48,3.243-2.579l-0.857-0.449c-0.384-0.213-0.378-0.588-0.217-0.876c0.16-0.289,0.485-0.512,0.87-0.297
			l2.808,1.56c0.308,0.17,0.548,0.506,0.335,0.891c-0.161,0.288-0.512,0.422-0.817,0.25l-0.153-0.086
			c-0.992-0.524-2.711-0.146-4.058,2.276c-1.72,3.097-0.704,7.157,2.582,9.032c3.285,1.876,7.336,0.701,9.084-2.354
			c0.616-1.115,1.043-2.742,0.894-4.059l-3.212-1.784l-2.071,3.732c-0.172,0.307-0.608,0.415-0.897,0.256
			c-0.317-0.15-0.538-0.525-0.312-0.93l2.412-4.346c0.183-0.327,0.562-0.47,0.927-0.268L423.261,352.877z"/>
		<path d="M425.438,329.747c4.209,1.797,6.057,6.771,4.34,10.799c-1.734,4.066-6.64,6.089-10.688,4.364
			c-4.291-1.831-6.122-6.848-4.413-10.854C416.471,329.847,421.49,328.065,425.438,329.747z M428.49,339.972
			c1.416-3.319-0.075-7.448-3.576-8.94c-3.34-1.424-7.517,0.119-9,3.601c-1.415,3.319,0.18,7.491,3.698,8.993
			C422.972,345.059,427.058,343.332,428.49,339.972z"/>
	</g>
	<g>
		<path d="M139.58,120.103c-1.432,0.803-2.697-1.45-1.267-2.255l0.645-0.362l-12.175-21.681l-0.646,0.362
			c-1.431,0.803-2.717-1.486-1.286-2.29l1.253-0.703c0.607-0.343,1.354-0.104,1.354-0.104c11.249,5.449,16.227,8.113,18.296,9.116
			l1.002-19.67c0,0,0.207-1.057,1.029-1.519l1.145-0.645c1.467-0.824,2.753,1.466,1.286,2.29l-0.645,0.363l12.176,21.681l0.645-0.36
			c1.466-0.824,2.733,1.43,1.267,2.253l-3.542,1.989c-1.467,0.824-2.732-1.431-1.267-2.255l0.646-0.36l-10.469-18.642l-1.123,16.773
			c-0.037,0.351-0.243,0.655-0.565,0.835c-0.286,0.161-0.704,0.254-1.043,0.068l-15.551-7.409l10.469,18.641l0.68-0.381
			c1.432-0.804,2.697,1.45,1.267,2.253L139.58,120.103z"/>
		<path d="M171.463,85.878l11.405-4.052c1.546-0.55,2.425,1.925,0.878,2.475l-11.404,4.052l3.721,10.478l13.416-4.766l-0.191-0.542
			c-0.551-1.545,1.886-2.411,2.435-0.864l0.618,1.739c0.22,0.619,0.053,1.375-0.721,1.649l-17.629,6.262
			c-1.586,0.563-2.45-1.873-0.864-2.436l0.502-0.179l-8.335-23.467l-0.502,0.179c-1.585,0.562-2.45-1.873-0.865-2.437l17.63-6.262
			c0.812-0.289,1.432,0.231,1.612,0.863l0.604,1.702c0.549,1.547-1.886,2.412-2.435,0.865l-0.193-0.542l-13.415,4.765
			L171.463,85.878z"/>
		<path d="M204.359,90.207l0.32-0.077c1.637-0.387,2.231,2.13,0.595,2.517c-1.039,0.245-2.117,0.5-3.154,0.745
			c-1.639,0.388-2.232-2.129-0.597-2.516l0.32-0.075l-5.731-24.241l-0.319,0.075c-1.638,0.387-2.231-2.129-0.596-2.516l3.155-0.747
			c1.638-0.388,2.232,2.13,0.595,2.517l-0.318,0.076L204.359,90.207z"/>
		<path d="M218.666,81.63l-1.533,5.884l0.205-0.024c1.629-0.192,1.935,2.375,0.305,2.568l-3.463,0.411
			c-1.631,0.193-1.935-2.374-0.306-2.567l0.529-0.062l6.682-25.875c-1.379-0.126-1.568-2.418-0.021-2.603l3.22-0.382
			c1.549-0.184,1.94,2.083,0.591,2.533l12.593,23.588l0.489-0.058c1.629-0.194,1.935,2.374,0.304,2.565l-3.422,0.407
			c-1.671,0.198-1.977-2.369-0.306-2.566l0.163-0.02l-2.867-5.362L218.666,81.63z M219.38,78.942l11.165-1.324l-7.285-13.682
			L219.38,78.942z"/>
		<path d="M264.969,85.394l0.327,0.035c1.632,0.179,1.351,2.749-0.282,2.569l-3.261-0.358c-1.633-0.178-1.352-2.748,0.278-2.569
			l0.327,0.036l2.717-24.754l-0.53-0.058c-1.633-0.179-1.352-2.748,0.282-2.569l1.834,0.201c0.488,0.053,0.829,0.338,1.069,0.777
			l11.366,21.676l2.313,5.248l0.206-4.89l2.012-18.351l-0.326-0.036c-1.631-0.179-1.349-2.748,0.281-2.57l3.223,0.354
			c1.671,0.184,1.392,2.752-0.281,2.569l-0.327-0.036l-2.865,26.141c-0.116,1.061-0.986,1.088-1.68,1.012
			c-0.489-0.054-0.957-0.311-1.15-0.786l-13.147-25.38L264.969,85.394z"/>
		<path d="M313.99,87.033l4.593-16.692l-0.317-0.087c-1.62-0.446-0.937-2.939,0.687-2.493l3.125,0.86
			c1.582,0.436,0.897,2.928-0.687,2.491l-0.315-0.087l-4.582,16.652c-1.512,5.499-7.376,8.565-12.677,7.107
			s-8.771-7.094-7.26-12.592l4.582-16.652l-0.316-0.087c-1.581-0.437-0.896-2.928,0.687-2.492l3.125,0.859
			c1.622,0.446,0.937,2.938-0.687,2.492l-0.314-0.087l-4.593,16.692c-1.133,4.112,1.457,8.313,5.45,9.414
			C308.484,93.433,312.858,91.147,313.99,87.033z"/>
		<path d="M329.904,87.415c-2.75,6.097-0.328,13.804,5.943,16.361c2.993,1.349,6.218,1.184,9.257,0.033
			c0.65-0.247,1.416,0.053,1.662,0.704s-0.092,1.399-0.742,1.646c-3.702,1.525-7.669,1.536-11.297-0.1
			c-7.405-3.338-10.516-12.211-7.144-19.69c3.371-7.48,12.396-10.929,19.54-7.707c2.618,1.181,5.105,3.651,5.465,5.749l0.704-1.663
			c0.339-0.749,1.033-0.795,1.596-0.542c0.56,0.253,1.023,0.82,0.688,1.569l-2.462,5.46c-0.271,0.6-0.855,1.101-1.604,0.764
			c-0.561-0.253-0.86-0.885-0.592-1.482l0.137-0.299c0.821-1.925-0.262-5.113-4.976-7.237
			C340.097,78.284,332.702,81.206,329.904,87.415z"/>
		<path d="M359.771,109.99l-4.957,3.521l0.172,0.112c1.372,0.899-0.045,3.062-1.418,2.163l-2.918-1.913
			c-1.372-0.899,0.045-3.062,1.419-2.161l0.445,0.292l21.753-15.524c-0.977-0.981,0.354-2.859,1.658-2.004l2.712,1.777
			c1.304,0.854,0.146,2.844-1.177,2.318l-5.521,26.163l0.413,0.271c1.372,0.899-0.044,3.062-1.418,2.163l-2.884-1.891
			c-1.405-0.922,0.011-3.084,1.419-2.161l0.138,0.09l1.249-5.952L359.771,109.99z M362.047,108.39l9.402,6.164l3.217-15.163
			L362.047,108.39z"/>
	</g>
	<g>
		<path d="M359.806,414.598c0-1.185-0.959-2.142-2.142-2.142c-1.182,0-2.143,0.957-2.143,2.142c0,1.186,0.961,2.145,2.143,2.145
			C358.847,416.742,359.806,415.783,359.806,414.598z"/>
	</g>
	<g>
		<circle cx="269.577" cy="448.667" r="2.143"/>
	</g>
	<g>
		<circle cx="156.906" cy="426.943" r="2.145"/>
	</g>
</g>
</svg>
