<?xml version="1.0" encoding="utf-8"?>
<!-- Generator: Adobe Illustrator 16.0.0, SVG Export Plug-In . SVG Version: 6.00 Build 0)  -->
<!DOCTYPE svg PUBLIC "-//W3C//DTD SVG 1.1//EN" "http://www.w3.org/Graphics/SVG/1.1/DTD/svg11.dtd">
<svg version="1.1" id="Layer_1" xmlns="http://www.w3.org/2000/svg" xmlns:xlink="http://www.w3.org/1999/xlink" x="0px" y="0px"
	 width="260.273px" height="268.493px" viewBox="0 0 260.273 268.493" enable-background="new 0 0 260.273 268.493"
	 xml:space="preserve">
<g>
	<g>
		<path fill="#FFFFFF" d="M230.089,84.324c-1.424,0-3.62,0.059-6.4,0.133c-4.796,0.128-11.363,0.304-18.657,0.304
			c-39.274,0-52.091-5.275-55.926-9.7c-7.4-8.539,1.236-21.051,6.396-28.526c2.89-4.187,4.209-6.097,3.244-7.934
			c-0.22-0.419-0.9-1.395-2.473-1.395c-0.386,0-0.811,0.06-1.298,0.182c-24.466,6.116-42.667,20.221-51.249,39.713
			C99.48,86.742,92.443,91.56,86.623,93.652c-0.663-8.09-2.989-36.686-3.314-43.46c-0.563-11.691-2.711-15.468-2.953-15.859
			L79.653,33.2l-1.326,0.134c-0.134,0.014-3.32,0.347-6.539,1.783c-2.146,0.958-3.822,2.183-5.014,3.634
			c-1.191-1.451-2.867-2.677-5.014-3.634c-3.219-1.437-6.405-1.77-6.539-1.783L53.896,33.2l-0.702,1.133
			c-0.242,0.393-2.389,4.169-2.953,15.858c-0.054,1.122-0.128,3.123-0.215,5.484l-0.072,1.933
			c-0.098,2.616-0.749,12.721-1.375,22.095c-6.491,1.438-17.714,13.52-19.975,16.015l-0.553,0.609v65.302v4.268v69.396h204.172
			v-69.396v-4.268V84.324H230.089z M54.219,57.767l0.071-1.934c0.087-2.341,0.16-4.323,0.214-5.436
			c0.337-6.979,1.255-10.793,1.829-12.56c2.77,0.578,8.308,2.314,8.308,6.938v1.799v11.984v6.299c0,1.179,0.955,2.134,2.134,2.134
			s2.134-0.955,2.134-2.134v-6.299V46.574v-1.799c0-4.595,5.536-6.345,8.307-6.933c0.582,1.786,1.495,5.597,1.83,12.555
			c0.346,7.169,2.813,37.393,3.386,44.365c-1.003,0.169-1.917,0.249-2.7,0.254c-3.332,0-7.121-2.091-10.822-4.644v-7.122
			c0-1.179-0.955-2.134-2.134-2.134s-2.134,0.955-2.134,2.134v4.015c-0.158-0.118-0.317-0.238-0.474-0.355
			c-3.974-2.988-7.772-5.837-11.332-6.91C53.465,70.574,54.121,60.402,54.219,57.767z M52.539,84.398
			c2.66,1.089,5.895,3.539,9.062,5.923c1.007,0.757,2.021,1.518,3.039,2.259v48.473c-12.22-19.536-12.975-41.954-13.012-43.531
			C51.723,96.324,52.1,90.899,52.539,84.398z M104.525,220.002h-3.22h-4.349h-3.22l-7.117-27.281v27.281h-7.568v-14.348
			c-0.188-0.639-0.48-1.186-0.876-1.637c-0.395-0.453-0.951-0.754-1.666-0.904c0.15-0.264,0.339-0.488,0.565-0.678
			c0.188-0.188,0.441-0.348,0.762-0.48c0.32-0.131,0.725-0.197,1.215-0.197v-24.965h3.389h4.18h3.39l6.947,26.604v-26.604h7.568
			V220.002z M138.472,183.797v0.564v28.297c0,1.018-0.198,1.977-0.593,2.881c-0.396,0.904-0.933,1.695-1.61,2.373
			s-1.469,1.215-2.372,1.609s-1.864,0.594-2.881,0.594h-0.112h-10.055h-0.112h-0.509c-0.979-0.076-1.893-0.32-2.739-0.734
			c-0.848-0.414-1.582-0.951-2.203-1.611c-0.621-0.658-1.111-1.43-1.469-2.314c-0.358-0.885-0.536-1.816-0.536-2.797v-6.891
			c-0.226-0.639-0.528-1.186-0.904-1.639c-0.376-0.451-0.923-0.752-1.638-0.902c0.15-0.264,0.339-0.49,0.565-0.678
			c0.188-0.189,0.441-0.348,0.762-0.48c0.32-0.131,0.725-0.197,1.215-0.197v-17.51v-7.457h6.947h0.621v19.543v10.846v2.146
			c0,0.867,0.301,1.602,0.904,2.203c0.602,0.602,1.336,0.902,2.202,0.902h4.519c0.679,0,1.252-0.234,1.724-0.705
			c0.47-0.471,0.706-1.025,0.706-1.666v-13.727v-19.543h7.568V183.797z M172.926,188.598h-7.568v-1.074
			c0-0.865-0.32-1.609-0.96-2.23c-0.641-0.621-1.394-0.912-2.26-0.875h-3.671c-0.867-0.037-1.62,0.254-2.26,0.875
			c-0.641,0.621-0.96,1.365-0.96,2.23v21.859c0,0.867,0.311,1.602,0.932,2.203s1.364,0.904,2.231,0.904h4.519
			c0.678,0,1.251-0.236,1.723-0.707c0.471-0.471,0.706-1.025,0.706-1.666v-1.752h7.568v4.236c0,1.018-0.199,1.979-0.598,2.881
			c-0.398,0.904-0.938,1.695-1.622,2.373c-0.683,0.678-1.479,1.215-2.391,1.609c-0.91,0.395-1.878,0.594-2.901,0.594h-0.057h-10.11
			h-0.057h-0.564c-0.98-0.076-1.884-0.32-2.712-0.734s-1.562-0.951-2.202-1.609c-0.642-0.66-1.14-1.432-1.497-2.316
			c-0.358-0.885-0.537-1.816-0.537-2.797v-6.607c-0.188-0.641-0.471-1.195-0.847-1.666c-0.377-0.471-0.941-0.764-1.694-0.877
			c0.149-0.262,0.339-0.488,0.564-0.678c0.188-0.188,0.442-0.348,0.763-0.479c0.319-0.133,0.725-0.199,1.214-0.199v-17.791
			c0-0.979,0.179-1.912,0.537-2.797c0.357-0.883,0.855-1.656,1.497-2.314c0.64-0.66,1.374-1.195,2.202-1.611
			c0.828-0.414,1.731-0.658,2.712-0.734h10.731h0.057c1.023,0,1.991,0.199,2.902,0.594c0.911,0.396,1.707,0.932,2.39,1.609
			c0.684,0.678,1.224,1.469,1.622,2.373s0.598,1.863,0.598,2.881V188.598z M199.473,220.115l-1.582-9.207h-9.602l-1.639,9.207
			h-7.625l2.542-14.518l-0.057,0.057c-0.226-0.639-0.527-1.195-0.903-1.666c-0.377-0.471-0.942-0.781-1.694-0.932
			c0.149-0.264,0.339-0.488,0.564-0.678c0.188-0.188,0.452-0.348,0.791-0.48c0.339-0.131,0.753-0.197,1.242-0.197
			c0.113,0,0.234,0.01,0.367,0.027c0.132,0.02,0.234,0.029,0.311,0.029l4.406-25.305h2.033h3.275h2.316h3.389h1.921l7.625,43.662
			H199.473z M227.955,161.629H32.318v-63.65c4.77-5.174,12.002-11.928,15.952-13.71c-0.448,6.622-0.829,12.091-0.904,13.015
			l-0.008,0.097l0.001,0.098c0.011,1.188,0.474,29.363,17.714,51.673c0.42,0.545,1.052,0.83,1.69,0.83
			c0.455,0,0.914-0.145,1.303-0.445c0.422-0.326,0.679-0.779,0.777-1.264c0.009-0.039,0.019-0.076,0.025-0.115
			c0.006-0.037,0.008-0.072,0.012-0.109c0.012-0.092,0.027-0.182,0.027-0.275V95.484c3.558,2.207,7.188,3.8,10.896,3.8
			c12.963-0.077,23.513-10.662,27.829-20.463c7.717-17.527,23.857-30.434,45.622-36.561c-0.412,0.613-0.855,1.256-1.265,1.849
			c-5.479,7.937-15.676,22.709-6.109,33.746c6.516,7.519,25.863,11.174,59.15,11.174c7.351,0,13.952-0.177,18.771-0.306
			c1.593-0.043,2.991-0.08,4.152-0.104V161.629z"/>
		<polygon fill="#FFFFFF" points="192.92,184.078 189.588,203.34 196.592,203.34 193.26,184.078 		"/>
		<g>
			<path fill="#FFFFFF" d="M98.67,150.76h0.057H98.67h-7.513l-7.173-27.28v27.28h-7.569v-14.346
				c-0.188-0.641-0.471-1.188-0.847-1.639c-0.377-0.451-0.941-0.753-1.694-0.904c0.149-0.262,0.339-0.488,0.564-0.678
				c0.188-0.188,0.442-0.347,0.763-0.479c0.319-0.132,0.725-0.197,1.214-0.197v-24.966h3.39h4.18h3.389l7.568,28.807l7.513-28.807
				h3.389h4.18h3.39v43.209h-7.569v-27.28L98.67,150.76z"/>
			<path fill="#FFFFFF" d="M123.861,135.199c-0.377-0.471-0.941-0.763-1.694-0.875c0.149-0.264,0.339-0.49,0.564-0.679
				c0.188-0.188,0.442-0.348,0.763-0.479c0.319-0.132,0.725-0.198,1.214-0.198v-6.27v-11.409v-7.568h22.198v7.568h-14.629v11.409
				h9.037v7.569h-9.037v9.094h14.629v7.568h-22.198v-7.568v-6.496C124.52,136.225,124.237,135.67,123.861,135.199z"/>
			<path fill="#FFFFFF" d="M157.524,134.832c-0.377-0.452-0.923-0.753-1.638-0.904c0.15-0.263,0.339-0.488,0.564-0.678
				c0.188-0.188,0.442-0.347,0.763-0.479c0.319-0.132,0.725-0.197,1.215-0.197v-5.987v-18.979h7.568v43.209h-7.568v-14.348
				C158.202,135.83,157.9,135.283,157.524,134.832z"/>
			<path fill="#FFFFFF" d="M193.955,141.666h-9.602l-1.639,9.207h-7.625l2.542-14.516l-0.057,0.057
				c-0.226-0.641-0.527-1.195-0.903-1.667c-0.377-0.47-0.942-0.78-1.694-0.933c0.149-0.262,0.339-0.488,0.564-0.678
				c0.188-0.188,0.452-0.347,0.791-0.479c0.339-0.131,0.753-0.197,1.242-0.197c0.113,0,0.234,0.01,0.367,0.028
				c0.132,0.02,0.234,0.028,0.311,0.028l4.406-25.305h2.033h3.275h2.316h3.389h1.921l7.625,43.661h-7.682L193.955,141.666z
				 M192.656,134.098l-3.332-19.261h-0.34l-3.332,19.261H192.656z"/>
		</g>
	</g>
</g>
</svg>
